<?xml version="1.0" encoding="utf-8"?>
<!-- Generator: Adobe Illustrator 26.3.1, SVG Export Plug-In . SVG Version: 6.00 Build 0)  -->
<svg version="1.1" id="Layer_1" xmlns="http://www.w3.org/2000/svg" xmlns:xlink="http://www.w3.org/1999/xlink" x="0px" y="0px"
	 viewBox="0 0 1000 1000" style="enable-background:new 0 0 1000 1000;" xml:space="preserve">
<style type="text/css">
	.st0{clip-path:url(#SVGID_00000079454448874965326620000005515438178744240055_);}
	.st1{fill:#FFFFFF;}
</style>
<g>
	<defs>
		<path id="SVGID_1_" d="M500,233.73c-147.736,0-267.5,119.213-267.5,266.27S352.264,766.27,500,766.27S767.5,647.057,767.5,500
			S647.736,233.73,500,233.73z"/>
	</defs>
	<clipPath id="SVGID_00000134965476327392854360000000899704846571775125_">
		<use xlink:href="#SVGID_1_"  style="overflow:visible;"/>
	</clipPath>
	<g style="clip-path:url(#SVGID_00000134965476327392854360000000899704846571775125_);">
		<g>
			<g>
				<path class="st1" d="M667.962,334.298c-0.827-0.006-1.677-0.437-2.548-1.292l-1.435-1.408l-3.057,3.116l-0.974-0.956
					l7.322-7.463l2.409,2.365c0.842,0.827,1.283,1.659,1.323,2.496c0.039,0.838-0.257,1.578-0.887,2.22
					C669.508,333.998,668.789,334.305,667.962,334.298z M667.749,333.028c0.487,0.016,0.945-0.193,1.372-0.628
					c0.904-0.921,0.827-1.9-0.229-2.937l-1.435-1.408l-2.69,2.74l1.435,1.408C666.745,332.736,667.261,333.011,667.749,333.028z"/>
				<path class="st1" d="M673.75,334.348l-2.532,2.409l2.626,2.761l-0.815,0.775l-2.626-2.761l-2.608,2.482l2.937,3.086
					l-0.816,0.775l-3.876-4.076l7.587-7.216l3.876,4.076l-0.815,0.775L673.75,334.348z"/>
				<path class="st1" d="M673.072,346.488c-0.185-0.902-0.123-1.796,0.184-2.683c0.307-0.887,0.844-1.666,1.611-2.338
					s1.61-1.102,2.53-1.288c0.92-0.188,1.814-0.129,2.684,0.172c0.869,0.302,1.623,0.818,2.262,1.548
					c0.646,0.738,1.061,1.558,1.246,2.459c0.184,0.902,0.123,1.792-0.184,2.671c-0.307,0.88-0.847,1.659-1.622,2.338
					c-0.775,0.678-1.619,1.111-2.531,1.298s-1.803,0.13-2.673-0.172c-0.869-0.302-1.626-0.822-2.271-1.559
					C673.668,348.205,673.256,347.389,673.072,346.488z M676.882,349.302c0.642,0.217,1.309,0.243,2.004,0.08
					c0.694-0.163,1.354-0.517,1.979-1.064c0.632-0.554,1.073-1.162,1.322-1.826c0.25-0.664,0.312-1.326,0.186-1.986
					c-0.127-0.661-0.434-1.269-0.92-1.825c-0.488-0.557-1.051-0.941-1.688-1.154c-0.638-0.212-1.303-0.239-1.993-0.079
					c-0.691,0.159-1.353,0.516-1.984,1.069c-0.625,0.547-1.064,1.153-1.317,1.82s-0.315,1.333-0.185,1.997
					c0.128,0.664,0.434,1.271,0.915,1.82C675.68,348.704,676.24,349.086,676.882,349.302z"/>
				<path class="st1" d="M686.277,363.578l0.267-1.923c-0.73-0.083-1.374-0.277-1.928-0.583c-0.556-0.306-1.055-0.749-1.498-1.329
					c-0.438-0.571-0.722-1.157-0.853-1.756s-0.099-1.165,0.098-1.699s0.548-0.996,1.056-1.385c0.58-0.443,1.217-0.668,1.91-0.676
					c0.692-0.008,1.412,0.213,2.158,0.662c0.107-0.485,0.245-0.88,0.415-1.186c0.169-0.306,0.404-0.574,0.706-0.805
					c0.349-0.268,0.733-0.419,1.152-0.457c0.419-0.036,0.835,0.051,1.249,0.263c0.414,0.212,0.788,0.537,1.122,0.974
					c0.329,0.429,0.53,0.866,0.606,1.311s0.027,0.861-0.149,1.248s-0.453,0.712-0.83,0.976l-0.83-1.084
					c0.331-0.242,0.518-0.528,0.559-0.862c0.041-0.334-0.054-0.651-0.285-0.953c-0.243-0.318-0.528-0.505-0.856-0.563
					c-0.327-0.058-0.63,0.02-0.907,0.232c-0.239,0.183-0.419,0.424-0.541,0.725c-0.123,0.301-0.228,0.731-0.316,1.29l-0.594,4.383
					l0.497-0.041l1.979-0.229l0.893,1.167l-2.438,0.317c-0.342,0.047-0.714,0.08-1.115,0.098l-0.439,3.301L686.277,363.578z
					 M685.185,360.003c0.431,0.218,0.939,0.348,1.526,0.39l0.586-4.32c-1.167-0.719-2.172-0.756-3.014-0.112
					c-0.469,0.358-0.729,0.825-0.78,1.399c-0.051,0.575,0.13,1.132,0.544,1.672C684.375,359.462,684.755,359.785,685.185,360.003z"
					/>
				<path class="st1" d="M698.793,365.081l-2.894,1.96l2.138,3.154l-0.931,0.631l-2.138-3.154l-2.98,2.02l2.391,3.527l-0.932,0.631
					l-3.155-4.656l8.666-5.875l3.156,4.656l-0.931,0.632L698.793,365.081z"/>
				<path class="st1" d="M696.137,376.951c-0.033-0.919,0.174-1.791,0.623-2.616c0.448-0.824,1.106-1.504,1.975-2.04
					c0.866-0.537,1.77-0.821,2.707-0.854c0.938-0.033,1.811,0.171,2.619,0.612c0.808,0.441,1.466,1.074,1.977,1.899
					c0.515,0.833,0.79,1.71,0.823,2.63c0.033,0.919-0.173,1.788-0.62,2.605c-0.447,0.817-1.108,1.497-1.984,2.038
					c-0.877,0.542-1.78,0.83-2.711,0.865c-0.931,0.035-1.8-0.168-2.608-0.61c-0.807-0.441-1.469-1.078-1.984-1.912
					C696.442,378.743,696.171,377.872,696.137,376.951z M699.431,380.355c0.597,0.32,1.251,0.455,1.963,0.409
					s1.422-0.287,2.128-0.724c0.714-0.442,1.248-0.97,1.604-1.583c0.355-0.614,0.524-1.257,0.509-1.929
					c-0.016-0.672-0.218-1.323-0.606-1.952c-0.39-0.629-0.882-1.102-1.476-1.416c-0.595-0.315-1.245-0.45-1.953-0.407
					c-0.708,0.044-1.419,0.287-2.134,0.729c-0.705,0.437-1.238,0.962-1.598,1.58c-0.359,0.616-0.53,1.262-0.512,1.938
					c0.019,0.677,0.22,1.325,0.604,1.946C698.345,379.567,698.835,380.036,699.431,380.355z"/>
				<path class="st1" d="M703.305,390.266l2.521-4.258l-0.804-1.441l-3.734,2.083l-0.665-1.192l9.132-5.092l1.644,2.947
					c0.385,0.69,0.592,1.338,0.621,1.946c0.03,0.608-0.09,1.142-0.36,1.602c-0.271,0.459-0.664,0.833-1.179,1.121
					c-0.629,0.351-1.285,0.478-1.968,0.384c-0.681-0.094-1.303-0.46-1.864-1.098l-2.548,4.426L703.305,390.266z M705.978,384.034
					l0.979,1.756c0.36,0.646,0.79,1.042,1.29,1.188c0.499,0.145,1.014,0.068,1.548-0.228c0.541-0.302,0.871-0.695,0.99-1.18
					c0.118-0.484-0.004-1.054-0.369-1.709l-0.979-1.756L705.978,384.034z"/>
				<path class="st1" d="M707.662,398.071c-0.019-0.597,0.101-1.131,0.356-1.6c0.255-0.469,0.637-0.833,1.146-1.091l0.636,1.308
					c-0.418,0.259-0.7,0.623-0.847,1.088s-0.069,1.005,0.228,1.616c0.284,0.584,0.655,0.974,1.111,1.169
					c0.457,0.195,0.914,0.181,1.373-0.042c0.359-0.175,0.603-0.416,0.731-0.724c0.129-0.307,0.18-0.637,0.151-0.991
					c-0.027-0.354-0.096-0.815-0.207-1.384c-0.14-0.699-0.219-1.275-0.239-1.726c-0.019-0.452,0.08-0.895,0.297-1.329
					c0.216-0.434,0.617-0.793,1.202-1.077c0.512-0.249,1.03-0.34,1.552-0.272c0.523,0.068,1.007,0.286,1.453,0.653
					c0.445,0.368,0.816,0.856,1.114,1.468c0.429,0.881,0.56,1.71,0.393,2.486c-0.167,0.776-0.598,1.377-1.29,1.804l-0.656-1.348
					c0.338-0.22,0.562-0.563,0.675-1.03c0.112-0.465,0.034-0.974-0.232-1.521c-0.249-0.513-0.586-0.867-1.008-1.061
					c-0.423-0.194-0.873-0.176-1.349,0.056c-0.343,0.166-0.574,0.398-0.695,0.697c-0.122,0.298-0.17,0.616-0.146,0.954
					c0.026,0.338,0.091,0.798,0.196,1.381c0.132,0.704,0.206,1.285,0.224,1.744c0.017,0.458-0.081,0.907-0.297,1.345
					c-0.214,0.438-0.618,0.802-1.212,1.091c-0.458,0.223-0.95,0.311-1.472,0.266c-0.523-0.046-1.026-0.246-1.511-0.6
					c-0.483-0.354-0.882-0.855-1.197-1.502C707.84,399.277,707.68,398.668,707.662,398.071z"/>
				<path class="st1" d="M719.653,402.192l-3.195,1.417l1.546,3.483l-1.029,0.456l-1.545-3.483l-3.291,1.459l1.728,3.894
					l-1.028,0.457l-2.28-5.143l9.57-4.245l2.28,5.143l-1.027,0.456L719.653,402.192z"/>
				<path class="st1" d="M715.664,416.806l3.042-3.902l-0.614-1.532l-3.968,1.591l-0.508-1.267l9.705-3.89l1.255,3.132
					c0.295,0.734,0.418,1.403,0.37,2.009c-0.049,0.607-0.235,1.121-0.562,1.543c-0.327,0.421-0.764,0.743-1.312,0.962
					c-0.667,0.268-1.335,0.311-1.999,0.131c-0.666-0.181-1.235-0.623-1.711-1.326l-3.089,4.066L715.664,416.806z M719.108,410.965
					l0.748,1.866c0.276,0.687,0.651,1.134,1.128,1.342s0.998,0.197,1.564-0.029c0.575-0.231,0.953-0.58,1.133-1.044
					c0.18-0.466,0.13-1.046-0.149-1.742l-0.748-1.866L719.108,410.965z"/>
				<path class="st1" d="M729.675,424.733l-11.172-0.233l-0.525-1.485l8.541-7.206l0.484,1.372l-7.403,6.103l9.594,0.091
					L729.675,424.733z"/>
				<path class="st1" d="M730.586,427.686l-9.955,3.193l-0.418-1.3l9.956-3.193L730.586,427.686z"/>
				<path class="st1" d="M729.075,430.996c0.909,0.218,1.694,0.647,2.355,1.286c0.659,0.638,1.123,1.424,1.389,2.357
					c0.312,1.096,0.32,2.129,0.024,3.096c-0.296,0.968-0.876,1.778-1.74,2.43l-0.447-1.572c0.525-0.452,0.878-0.987,1.055-1.604
					c0.178-0.618,0.162-1.292-0.046-2.022c-0.2-0.702-0.543-1.286-1.029-1.75c-0.485-0.464-1.074-0.77-1.766-0.916
					c-0.691-0.146-1.441-0.104-2.25,0.126c-0.798,0.227-1.452,0.585-1.963,1.074c-0.51,0.488-0.85,1.059-1.018,1.709
					s-0.151,1.328,0.049,2.03c0.208,0.73,0.548,1.312,1.019,1.745c0.473,0.432,1.052,0.702,1.736,0.808l0.448,1.572
					c-1.068-0.101-1.981-0.485-2.738-1.153c-0.758-0.668-1.292-1.55-1.604-2.646c-0.267-0.934-0.29-1.844-0.07-2.734
					c0.221-0.889,0.656-1.666,1.31-2.331c0.652-0.665,1.47-1.136,2.45-1.416C727.22,430.807,728.165,430.776,729.075,430.996z"/>
				<path class="st1" d="M733.818,443.229l-3.397,0.819l0.893,3.704l-1.094,0.264l-0.893-3.704l-3.5,0.843l0.998,4.143l-1.094,0.263
					l-1.317-5.468l10.179-2.453l1.317,5.468l-1.094,0.264L733.818,443.229z"/>
				<path class="st1" d="M726.712,452.855c0.132-0.583,0.378-1.07,0.742-1.46c0.364-0.391,0.825-0.649,1.382-0.772l0.291,1.425
					c-0.471,0.147-0.834,0.428-1.091,0.843c-0.258,0.415-0.318,0.956-0.183,1.622c0.131,0.637,0.393,1.106,0.786,1.41
					c0.394,0.302,0.841,0.402,1.34,0.3c0.392-0.08,0.688-0.253,0.89-0.519c0.201-0.265,0.331-0.572,0.394-0.921
					c0.061-0.35,0.108-0.813,0.144-1.393c0.039-0.712,0.104-1.29,0.197-1.732c0.094-0.442,0.3-0.847,0.618-1.212
					c0.318-0.366,0.796-0.615,1.432-0.745c0.56-0.113,1.083-0.072,1.572,0.124c0.489,0.196,0.903,0.527,1.244,0.994
					c0.34,0.466,0.577,1.032,0.714,1.699c0.195,0.959,0.116,1.795-0.238,2.505c-0.355,0.711-0.922,1.186-1.699,1.426l-0.301-1.47
					c0.382-0.129,0.687-0.404,0.911-0.828c0.224-0.424,0.275-0.935,0.153-1.533c-0.113-0.557-0.352-0.984-0.713-1.277
					c-0.36-0.294-0.801-0.388-1.319-0.282c-0.373,0.077-0.654,0.244-0.848,0.502c-0.191,0.259-0.317,0.555-0.377,0.889
					c-0.06,0.333-0.111,0.795-0.153,1.386c-0.049,0.714-0.121,1.295-0.218,1.744c-0.098,0.449-0.306,0.859-0.623,1.229
					c-0.316,0.371-0.798,0.623-1.445,0.754c-0.5,0.102-0.996,0.066-1.491-0.108c-0.495-0.174-0.933-0.493-1.313-0.957
					c-0.38-0.463-0.643-1.048-0.786-1.753C726.585,454.067,726.581,453.438,726.712,452.855z"/>
			</g>
			<g>
				<path class="st1" d="M402.661,280.847l1.395,3.204l3.494-1.521l0.449,1.032l-3.493,1.521l1.438,3.301l3.906-1.701l0.449,1.032
					l-5.158,2.245l-4.18-9.6l5.158-2.245l0.449,1.03L402.661,280.847z"/>
				<path class="st1" d="M414.206,280.514l4.898,3.682l-1.438,0.565l-3.825-2.878l-0.725,4.669l-1.41,0.555l1.061-6.028
					l-4.904-3.697l1.424-0.559l3.844,2.887l0.734-4.688l1.424-0.561L414.206,280.514z"/>
				<path class="st1" d="M424.759,276.659c-0.372,0.739-1.134,1.311-2.284,1.714l-1.897,0.664l1.442,4.12l-1.288,0.451l-3.456-9.867
					l3.186-1.116c1.113-0.39,2.055-0.417,2.823-0.082s1.302,0.926,1.6,1.775C425.172,275.14,425.13,275.92,424.759,276.659z
					 M423.524,276.288c0.23-0.429,0.245-0.933,0.044-1.509c-0.427-1.218-1.339-1.583-2.735-1.093l-1.897,0.665l1.269,3.624
					l1.897-0.665C422.819,277.06,423.294,276.719,423.524,276.288z"/>
				<path class="st1" d="M427.388,271.483l1.039,3.338l3.638-1.134l0.334,1.074l-3.637,1.133l1.07,3.438l4.066-1.268l0.335,1.075
					l-5.371,1.672l-3.113-9.996l5.371-1.672l0.335,1.074L427.388,271.483z"/>
				<path class="st1" d="M441.429,277.132l-3.526-3.47l-1.592,0.433l1.124,4.125l-1.317,0.359l-2.748-10.087l3.256-0.888
					c0.763-0.207,1.442-0.251,2.039-0.135c0.597,0.118,1.086,0.362,1.467,0.735c0.383,0.373,0.651,0.844,0.806,1.414
					c0.189,0.695,0.156,1.361-0.1,2c-0.256,0.641-0.761,1.157-1.514,1.548l3.684,3.536L441.429,277.132z M436.023,273.039
					l1.938-0.528c0.714-0.195,1.202-0.516,1.463-0.966c0.261-0.449,0.312-0.969,0.151-1.556c-0.163-0.599-0.466-1.014-0.907-1.247
					c-0.442-0.23-1.025-0.25-1.748-0.052l-1.939,0.529L436.023,273.039z"/>
				<path class="st1" d="M448.734,264.612l0.252,1.082l-2.776,0.646l2.122,9.102l-1.329,0.31l-2.122-9.1l-2.791,0.65l-0.251-1.081
					L448.734,264.612z"/>
				<path class="st1" d="M455.351,265.763c0.316-0.88,0.827-1.615,1.533-2.202s1.537-0.963,2.493-1.127
					c1.124-0.193,2.15-0.088,3.081,0.31c0.931,0.398,1.673,1.062,2.229,1.993l-1.612,0.276c-0.392-0.572-0.885-0.98-1.479-1.224
					c-0.595-0.242-1.267-0.3-2.015-0.171c-0.72,0.124-1.336,0.402-1.851,0.834c-0.515,0.433-0.881,0.985-1.101,1.657
					c-0.22,0.673-0.259,1.421-0.117,2.25c0.139,0.818,0.425,1.508,0.855,2.067c0.431,0.561,0.96,0.959,1.589,1.197
					c0.629,0.237,1.303,0.294,2.023,0.17c0.749-0.128,1.363-0.402,1.845-0.825c0.48-0.422,0.811-0.969,0.99-1.638l1.611-0.276
					c-0.216,1.053-0.696,1.918-1.442,2.598c-0.746,0.681-1.681,1.117-2.805,1.31c-0.956,0.164-1.863,0.089-2.724-0.226
					c-0.861-0.315-1.586-0.832-2.176-1.554c-0.591-0.72-0.972-1.583-1.144-2.589C454.964,267.587,455.036,266.644,455.351,265.763z"
					/>
				<path class="st1" d="M469.833,270.965c-0.849-0.356-1.551-0.911-2.109-1.666c-0.559-0.754-0.899-1.636-1.021-2.65
					c-0.121-1.013,0.001-1.951,0.365-2.816c0.365-0.865,0.918-1.57,1.658-2.117c0.74-0.547,1.592-0.878,2.555-0.994
					c0.973-0.116,1.885,0.004,2.733,0.361c0.848,0.356,1.548,0.909,2.102,1.66c0.553,0.749,0.891,1.635,1.013,2.658
					c0.123,1.023,0.003,1.963-0.356,2.822c-0.361,0.858-0.911,1.561-1.651,2.109c-0.74,0.547-1.598,0.878-2.57,0.995
					C471.588,271.442,470.681,271.323,469.833,270.965z M474.307,269.411c0.54-0.408,0.939-0.944,1.197-1.609
					c0.258-0.666,0.338-1.41,0.239-2.235c-0.1-0.834-0.354-1.541-0.761-2.122c-0.406-0.581-0.918-1.006-1.534-1.274
					c-0.617-0.269-1.292-0.36-2.026-0.271c-0.735,0.087-1.37,0.335-1.905,0.741c-0.536,0.407-0.933,0.94-1.191,1.601
					c-0.259,0.66-0.337,1.407-0.237,2.241c0.099,0.824,0.351,1.529,0.759,2.115c0.408,0.586,0.922,1.014,1.543,1.282
					c0.621,0.267,1.295,0.357,2.02,0.271C473.135,270.065,473.767,269.817,474.307,269.411z"/>
				<path class="st1" d="M487.619,269.883l-1.361,0.096l-6.066-7.914l0.591,8.304l-1.362,0.097l-0.743-10.443l1.361-0.097
					l6.066,7.899l-0.59-8.289l1.361-0.096L487.619,269.883z"/>
				<path class="st1" d="M491.28,269.483c-0.553-0.229-0.989-0.556-1.312-0.981s-0.497-0.923-0.524-1.493l1.455-0.042
					c0.064,0.489,0.278,0.895,0.643,1.219c0.365,0.324,0.887,0.476,1.567,0.457c0.65-0.019,1.157-0.197,1.522-0.533
					c0.365-0.335,0.541-0.758,0.525-1.268c-0.012-0.4-0.132-0.722-0.358-0.965c-0.228-0.243-0.509-0.425-0.842-0.546
					c-0.333-0.12-0.782-0.246-1.347-0.38c-0.695-0.16-1.253-0.323-1.673-0.492c-0.42-0.167-0.783-0.438-1.09-0.815
					c-0.306-0.376-0.468-0.889-0.488-1.539c-0.016-0.57,0.113-1.079,0.391-1.527c0.276-0.449,0.675-0.8,1.192-1.056
					c0.518-0.254,1.116-0.393,1.795-0.414c0.98-0.028,1.789,0.193,2.43,0.665c0.639,0.472,1.01,1.11,1.114,1.918l-1.5,0.043
					c-0.062-0.397-0.282-0.744-0.661-1.039c-0.378-0.293-0.873-0.432-1.482-0.414c-0.569,0.017-1.03,0.178-1.381,0.483
					c-0.352,0.306-0.52,0.723-0.504,1.252c0.012,0.38,0.128,0.687,0.35,0.92c0.223,0.233,0.492,0.408,0.811,0.523
					c0.319,0.116,0.766,0.246,1.341,0.389c0.695,0.169,1.255,0.341,1.681,0.513c0.425,0.173,0.793,0.447,1.104,0.822
					c0.311,0.377,0.476,0.894,0.495,1.554c0.016,0.509-0.104,0.993-0.361,1.452c-0.258,0.457-0.646,0.834-1.168,1.129
					c-0.521,0.295-1.142,0.454-1.861,0.476C492.453,269.816,491.832,269.712,491.28,269.483z"/>
				<path class="st1" d="M499.963,259.125l-0.074,6.615c-0.01,0.93,0.21,1.622,0.66,2.077c0.449,0.455,1.08,0.688,1.89,0.696
					c0.8,0.009,1.43-0.208,1.89-0.654c0.46-0.445,0.695-1.132,0.706-2.062l0.073-6.615l1.365,0.015l-0.074,6.6
					c-0.009,0.87-0.192,1.601-0.549,2.192c-0.357,0.59-0.835,1.026-1.433,1.311c-0.598,0.285-1.268,0.422-2.007,0.413
					c-0.74-0.009-1.405-0.161-1.998-0.457c-0.592-0.297-1.056-0.745-1.395-1.344c-0.338-0.598-0.503-1.333-0.493-2.203l0.073-6.6
					L499.963,259.125z"/>
				<path class="st1" d="M509.972,268.704l3.656,0.171l-0.052,1.109l-5.021-0.235l0.489-10.444l1.363,0.064L509.972,268.704z"/>
				<path class="st1" d="M522.162,260.147l-0.086,1.107l-2.842-0.223l-0.728,9.317l-1.361-0.107l0.728-9.316l-2.856-0.224
					l0.087-1.106L522.162,260.147z"/>
				<path class="st1" d="M525.407,260.495l-1.078,10.4l-1.358-0.141l1.078-10.399L525.407,260.495z"/>
				<path class="st1" d="M534.699,272.201l-1.354-0.183l-4.332-8.982l-1.108,8.251l-1.354-0.183l1.396-10.376l1.353,0.182
					l4.334,8.967l1.107-8.236l1.353,0.183L534.699,272.201z"/>
				<path class="st1" d="M545.998,266.654c-0.176-0.652-0.504-1.192-0.984-1.622c-0.481-0.428-1.08-0.708-1.799-0.839
					c-0.718-0.131-1.395-0.084-2.03,0.139c-0.636,0.225-1.175,0.614-1.616,1.167c-0.442,0.556-0.737,1.236-0.885,2.043
					c-0.147,0.806-0.113,1.544,0.105,2.215c0.218,0.669,0.584,1.223,1.1,1.657c0.516,0.435,1.132,0.718,1.85,0.85
					c1.004,0.184,1.885,0.035,2.644-0.446c0.76-0.482,1.286-1.224,1.582-2.227l-4.103-0.751l0.2-1.092l5.533,1.013l-0.189,1.032
					c-0.233,0.832-0.641,1.558-1.222,2.178c-0.581,0.621-1.278,1.068-2.091,1.342c-0.812,0.273-1.671,0.327-2.576,0.161
					c-0.953-0.174-1.783-0.557-2.488-1.148c-0.705-0.593-1.214-1.328-1.525-2.208c-0.312-0.881-0.375-1.823-0.191-2.826
					c0.184-1.004,0.577-1.864,1.182-2.583c0.604-0.718,1.34-1.229,2.209-1.533c0.869-0.302,1.78-0.368,2.734-0.193
					c1.092,0.2,2.009,0.647,2.751,1.344c0.742,0.694,1.215,1.568,1.418,2.622L545.998,266.654z"/>
			</g>
			<g>
				<path class="st1" d="M264.478,445.531l10.214,2.23l-0.291,1.333l-4.631-1.011l-1.136,5.203l4.631,1.01l-0.291,1.334
					l-10.215-2.229l0.292-1.334l4.484,0.979l1.136-5.202l-4.485-0.979L264.478,445.531z"/>
				<path class="st1" d="M276.618,440.276l-4.767,1.325l-0.418,1.597l4.136,1.083l-0.346,1.32l-10.114-2.648l0.854-3.265
					c0.2-0.764,0.5-1.375,0.899-1.835c0.399-0.458,0.855-0.76,1.369-0.905c0.514-0.144,1.055-0.142,1.626,0.007
					c0.696,0.184,1.258,0.545,1.686,1.085c0.427,0.541,0.622,1.235,0.586,2.085l4.902-1.431L276.618,440.276z M270.374,442.921
					l0.509-1.944c0.188-0.716,0.152-1.299-0.107-1.75c-0.26-0.449-0.684-0.752-1.274-0.906c-0.599-0.158-1.11-0.103-1.531,0.164
					c-0.422,0.268-0.727,0.764-0.917,1.489l-0.51,1.944L270.374,442.921z"/>
				<path class="st1" d="M278.752,430.935c-0.683,0.618-1.482,1.021-2.402,1.208s-1.864,0.122-2.833-0.197
					c-0.969-0.318-1.768-0.825-2.397-1.521c-0.628-0.696-1.034-1.495-1.217-2.397c-0.182-0.902-0.122-1.814,0.181-2.735
					c0.306-0.931,0.8-1.705,1.482-2.323c0.682-0.618,1.479-1.019,2.393-1.203c0.913-0.184,1.858-0.115,2.837,0.206
					s1.78,0.827,2.407,1.518c0.626,0.69,1.03,1.485,1.212,2.388c0.183,0.902,0.121,1.819-0.185,2.75
					C279.927,429.547,279.433,430.318,278.752,430.935z M279.235,426.223c-0.141-0.662-0.458-1.25-0.952-1.766
					c-0.493-0.515-1.135-0.901-1.923-1.161c-0.799-0.262-1.547-0.332-2.245-0.209s-1.3,0.407-1.804,0.853
					c-0.504,0.444-0.872,1.019-1.103,1.722c-0.231,0.703-0.275,1.383-0.134,2.04c0.143,0.657,0.458,1.243,0.947,1.756
					c0.488,0.514,1.132,0.901,1.93,1.163c0.789,0.26,1.534,0.329,2.237,0.207s1.308-0.407,1.813-0.857
					c0.506-0.449,0.872-1.021,1.101-1.714C279.331,427.563,279.375,426.884,279.235,426.223z"/>
				<path class="st1" d="M273.069,417.054l6.181,2.357c0.869,0.331,1.595,0.365,2.178,0.1c0.582-0.265,1.019-0.774,1.307-1.532
					c0.285-0.747,0.299-1.413,0.04-1.999c-0.259-0.585-0.821-1.044-1.69-1.375l-6.181-2.358l0.486-1.275l6.167,2.353
					c0.813,0.311,1.435,0.734,1.865,1.273c0.432,0.539,0.677,1.139,0.735,1.799c0.06,0.658-0.043,1.334-0.307,2.025
					s-0.637,1.264-1.12,1.716s-1.064,0.733-1.743,0.845c-0.679,0.109-1.425,0.01-2.238-0.301l-6.166-2.352L273.069,417.054z"/>
				<path class="st1" d="M278.9,402.672l1.021,0.436l-1.119,2.621l8.595,3.67l-0.536,1.255l-8.594-3.669l-1.126,2.635l-1.021-0.436
					L278.9,402.672z"/>
				<path class="st1" d="M291.239,400.327c-0.46,0.381-0.954,0.614-1.48,0.7c-0.528,0.087-1.05,0.008-1.565-0.234l0.642-1.306
					c0.463,0.172,0.922,0.172,1.379,0.001c0.457-0.17,0.836-0.561,1.137-1.172c0.286-0.583,0.366-1.114,0.24-1.595
					c-0.125-0.479-0.418-0.832-0.875-1.058c-0.359-0.176-0.699-0.22-1.021-0.133c-0.321,0.086-0.614,0.249-0.876,0.488
					c-0.263,0.238-0.584,0.576-0.967,1.012c-0.465,0.54-0.87,0.957-1.216,1.25c-0.344,0.293-0.754,0.487-1.23,0.582
					c-0.476,0.095-1.005-0.002-1.588-0.289c-0.512-0.251-0.9-0.604-1.168-1.059c-0.267-0.454-0.392-0.97-0.376-1.547
					c0.017-0.577,0.175-1.171,0.476-1.781c0.432-0.879,1.006-1.491,1.722-1.836s1.454-0.374,2.217-0.088l-0.662,1.346
					c-0.381-0.132-0.79-0.099-1.228,0.099c-0.437,0.197-0.79,0.569-1.06,1.117c-0.251,0.512-0.324,0.993-0.218,1.446
					c0.105,0.454,0.396,0.798,0.872,1.031c0.341,0.168,0.667,0.209,0.977,0.121c0.311-0.087,0.592-0.244,0.842-0.472
					c0.252-0.228,0.575-0.562,0.97-1.003c0.476-0.535,0.889-0.95,1.24-1.245c0.352-0.296,0.766-0.493,1.244-0.592
					c0.478-0.1,1.013-0.004,1.604,0.288c0.458,0.225,0.829,0.558,1.113,0.999c0.285,0.44,0.437,0.961,0.453,1.56
					c0.018,0.6-0.133,1.222-0.45,1.867C292.082,399.446,291.699,399.946,291.239,400.327z"/>
				<path class="st1" d="M295.185,391.836c-0.783,0.483-1.645,0.733-2.583,0.748c-0.938,0.017-1.854-0.221-2.749-0.711
					c-0.894-0.49-1.587-1.135-2.078-1.935s-0.744-1.659-0.758-2.58c-0.015-0.92,0.211-1.806,0.678-2.656
					c0.471-0.858,1.099-1.53,1.882-2.013c0.784-0.482,1.641-0.731,2.572-0.745c0.932-0.015,1.849,0.227,2.752,0.722
					s1.6,1.139,2.088,1.932c0.489,0.793,0.741,1.649,0.756,2.569s-0.214,1.81-0.685,2.67
					C296.594,390.687,295.969,391.353,295.185,391.836z M296.522,387.292c-0.018-0.677-0.222-1.313-0.613-1.909
					c-0.391-0.597-0.95-1.095-1.678-1.494c-0.737-0.403-1.46-0.608-2.169-0.615c-0.709-0.006-1.352,0.163-1.929,0.508
					s-1.044,0.842-1.399,1.49c-0.355,0.649-0.524,1.311-0.505,1.981c0.02,0.673,0.223,1.306,0.609,1.899
					c0.388,0.595,0.949,1.094,1.686,1.498c0.728,0.398,1.448,0.604,2.162,0.611c0.714,0.01,1.359-0.161,1.939-0.511
					c0.579-0.35,1.044-0.844,1.396-1.484C296.372,388.627,296.539,387.968,296.522,387.292z"/>
				<path class="st1" d="M292.128,377.168l5.645,3.45c0.793,0.484,1.5,0.651,2.122,0.497c0.621-0.153,1.144-0.576,1.565-1.268
					c0.417-0.682,0.552-1.335,0.405-1.958c-0.146-0.622-0.616-1.177-1.41-1.662l-5.645-3.449l0.712-1.164l5.632,3.441
					c0.742,0.454,1.276,0.985,1.601,1.594c0.325,0.609,0.457,1.243,0.394,1.901c-0.062,0.66-0.287,1.305-0.673,1.936
					c-0.386,0.632-0.857,1.126-1.415,1.482s-1.18,0.527-1.868,0.511c-0.688-0.016-1.402-0.251-2.145-0.704l-5.632-3.442
					L292.128,377.168z"/>
				<path class="st1" d="M308.699,370.65l-4.937-0.311l-0.919,1.372l3.553,2.378l-0.76,1.135l-8.688-5.817l1.878-2.805
					c0.439-0.656,0.923-1.136,1.451-1.438c0.526-0.303,1.058-0.438,1.59-0.406s1.044,0.211,1.534,0.539
					c0.598,0.401,1.01,0.927,1.236,1.578c0.226,0.65,0.183,1.371-0.13,2.161l5.101,0.255L308.699,370.65z M301.933,371.102
					l1.118-1.671c0.412-0.614,0.569-1.178,0.472-1.688c-0.097-0.511-0.399-0.936-0.906-1.275c-0.516-0.345-1.016-0.46-1.501-0.346
					s-0.938,0.482-1.354,1.106l-1.119,1.669L301.933,371.102z"/>
				<path class="st1" d="M304.334,362.88c-0.385-0.854-0.525-1.738-0.425-2.65c0.101-0.913,0.438-1.761,1.014-2.541
					c0.676-0.919,1.486-1.557,2.434-1.916c0.947-0.357,1.942-0.396,2.987-0.111l-0.97,1.317c-0.679-0.14-1.317-0.091-1.914,0.146
					s-1.12,0.662-1.571,1.274c-0.433,0.588-0.684,1.217-0.753,1.885c-0.071,0.669,0.049,1.32,0.355,1.957
					c0.309,0.637,0.801,1.203,1.478,1.701c0.668,0.492,1.352,0.791,2.051,0.896c0.698,0.104,1.357,0.024,1.975-0.241
					s1.144-0.693,1.576-1.281c0.449-0.611,0.701-1.235,0.755-1.874c0.054-0.637-0.087-1.26-0.423-1.866l0.969-1.316
					c0.574,0.906,0.829,1.863,0.764,2.871c-0.064,1.008-0.436,1.971-1.11,2.889c-0.575,0.781-1.281,1.357-2.12,1.728
					c-0.837,0.371-1.719,0.502-2.644,0.392s-1.798-0.467-2.619-1.071C305.319,364.462,304.718,363.733,304.334,362.88z"/>
				<path class="st1" d="M310.182,351.024l8.213,6.47l-0.845,1.072l-8.213-6.469L310.182,351.024z"/>
				<path class="st1" d="M325.043,349.429l-0.877,1.046l-9.906-1.141l6.379,5.348l-0.876,1.046l-8.024-6.726l0.877-1.046
					l9.896,1.131l-6.369-5.338l0.877-1.046L325.043,349.429z"/>
				<path class="st1" d="M326.416,336.893c-0.646-0.2-1.277-0.212-1.896-0.035c-0.619,0.178-1.176,0.534-1.671,1.071
					c-0.495,0.536-0.818,1.133-0.969,1.79s-0.109,1.32,0.123,1.99c0.231,0.671,0.649,1.284,1.252,1.84s1.246,0.921,1.928,1.095
					c0.684,0.175,1.346,0.16,1.989-0.042c0.643-0.203,1.212-0.573,1.707-1.109c0.691-0.75,1.037-1.574,1.036-2.473
					c0-0.898-0.347-1.741-1.035-2.526l-2.828,3.063l-0.815-0.752l3.813-4.135l0.771,0.712c0.578,0.643,0.974,1.375,1.188,2.198
					c0.214,0.822,0.219,1.65,0.015,2.482c-0.203,0.833-0.617,1.588-1.241,2.264c-0.658,0.713-1.425,1.21-2.302,1.489
					c-0.877,0.278-1.771,0.314-2.681,0.107c-0.911-0.208-1.741-0.657-2.491-1.35c-0.749-0.691-1.266-1.484-1.55-2.379
					c-0.283-0.895-0.321-1.789-0.113-2.687c0.208-0.896,0.641-1.701,1.299-2.414c0.753-0.815,1.621-1.351,2.604-1.606
					c0.984-0.256,1.977-0.188,2.976,0.203L326.416,336.893z"/>
			</g>
			<g>
				<path class="st1" d="M261.516,553.381c0.127-0.585,0.372-1.073,0.733-1.466s0.82-0.653,1.376-0.78l0.3,1.423
					c-0.469,0.149-0.831,0.434-1.086,0.851c-0.254,0.416-0.311,0.957-0.17,1.623c0.134,0.636,0.399,1.104,0.794,1.402
					c0.395,0.301,0.843,0.397,1.341,0.292c0.392-0.082,0.687-0.257,0.886-0.524c0.199-0.266,0.328-0.574,0.387-0.925
					c0.059-0.349,0.104-0.813,0.135-1.393c0.034-0.712,0.096-1.29,0.186-1.732c0.091-0.444,0.294-0.85,0.61-1.218
					s0.792-0.619,1.428-0.753c0.558-0.118,1.082-0.08,1.572,0.112c0.491,0.193,0.907,0.521,1.25,0.986
					c0.343,0.464,0.585,1.028,0.726,1.693c0.202,0.96,0.128,1.795-0.223,2.508c-0.35,0.713-0.913,1.191-1.689,1.438l-0.309-1.468
					c0.38-0.132,0.682-0.41,0.904-0.835c0.222-0.425,0.27-0.937,0.145-1.532c-0.118-0.558-0.358-0.981-0.721-1.274
					c-0.363-0.291-0.804-0.383-1.322-0.272c-0.373,0.079-0.654,0.247-0.844,0.508c-0.191,0.259-0.314,0.557-0.372,0.89
					c-0.058,0.335-0.105,0.797-0.144,1.389c-0.043,0.714-0.112,1.296-0.207,1.745c-0.095,0.449-0.299,0.86-0.614,1.232
					c-0.315,0.373-0.794,0.629-1.44,0.765c-0.499,0.105-0.997,0.072-1.493-0.1c-0.496-0.17-0.936-0.487-1.319-0.947
					c-0.383-0.461-0.649-1.044-0.797-1.749C261.397,554.594,261.389,553.965,261.516,553.381z"/>
				<path class="st1" d="M274.714,564.399l-1.073,0.282l-0.727-2.756l-9.036,2.384l-0.348-1.32l9.036-2.384l-0.73-2.77l1.073-0.282
					L274.714,564.399z"/>
				<path class="st1" d="M269.149,574.152l-1.329-4.361l-2.469-0.126l-0.419-1.377l11.045,0.586l0.46,1.507l-8.847,6.632
					l-0.42-1.378L269.149,574.152z M270.097,573.456l4.5-3.347l-5.601-0.269L270.097,573.456z"/>
				<path class="st1" d="M280.018,580.964l-1.049,0.362l-1.484-4.296l-3.332,1.15l1.205,3.487l-1.049,0.363l-1.206-3.487
					l-4.452,1.537l-0.446-1.289l9.882-3.415L280.018,580.964z"/>
				<path class="st1" d="M282.66,587.93l-1.037,0.396l-1.621-4.247l-3.293,1.258l1.315,3.446l-1.037,0.396l-1.315-3.447l-4.4,1.679
					l-0.487-1.275l9.768-3.727L282.66,587.93z"/>
				<path class="st1" d="M283.778,590.628l-9.677,3.958l-0.518-1.264l9.678-3.957L283.778,590.628z"/>
				<path class="st1" d="M278.377,604.428l-0.554-1.247l5.379-8.396l-7.608,3.38l-0.554-1.247l9.567-4.253l0.555,1.248l-5.365,8.392
					l7.594-3.375l0.554,1.248L278.377,604.428z"/>
				<path class="st1" d="M289.691,610.586c0.415-0.532,0.649-1.12,0.702-1.762s-0.084-1.289-0.412-1.941
					c-0.328-0.652-0.773-1.164-1.334-1.538c-0.562-0.371-1.198-0.568-1.907-0.586c-0.708-0.02-1.429,0.155-2.162,0.523
					c-0.733,0.367-1.301,0.84-1.705,1.417c-0.405,0.578-0.625,1.204-0.661,1.877c-0.038,0.672,0.108,1.336,0.436,1.988
					c0.457,0.91,1.106,1.524,1.948,1.842c0.841,0.315,1.751,0.29,2.73-0.078l-1.871-3.728l0.992-0.497l2.524,5.026l-0.938,0.471
					c-0.805,0.314-1.63,0.427-2.475,0.337c-0.846-0.091-1.622-0.378-2.329-0.861c-0.708-0.485-1.268-1.138-1.681-1.96
					c-0.436-0.867-0.629-1.76-0.581-2.679c0.047-0.92,0.329-1.768,0.845-2.548c0.515-0.778,1.229-1.397,2.14-1.855
					c0.912-0.456,1.836-0.66,2.773-0.61c0.937,0.049,1.788,0.331,2.553,0.84c0.766,0.511,1.366,1.201,1.801,2.067
					c0.498,0.992,0.693,1.993,0.585,3.004c-0.108,1.012-0.521,1.915-1.24,2.712L289.691,610.586z"/>
				<path class="st1" d="M287.878,622.201c-0.062-0.595,0.018-1.135,0.239-1.621c0.22-0.487,0.574-0.877,1.062-1.171l0.73,1.258
					c-0.399,0.289-0.654,0.671-0.766,1.146c-0.112,0.476,0.003,1.007,0.344,1.595c0.326,0.562,0.724,0.925,1.193,1.086
					c0.469,0.161,0.924,0.114,1.365-0.143c0.346-0.2,0.572-0.459,0.678-0.774c0.106-0.315,0.133-0.647,0.079-0.999
					c-0.053-0.351-0.154-0.806-0.306-1.366c-0.19-0.687-0.312-1.255-0.365-1.705c-0.052-0.448,0.014-0.896,0.199-1.346
					c0.185-0.448,0.559-0.834,1.121-1.161c0.493-0.286,1.003-0.414,1.529-0.385c0.525,0.031,1.024,0.213,1.495,0.546
					c0.471,0.335,0.877,0.795,1.218,1.384c0.492,0.848,0.683,1.665,0.572,2.451s-0.496,1.418-1.156,1.894l-0.752-1.298
					c0.32-0.244,0.52-0.603,0.598-1.076c0.078-0.473-0.036-0.974-0.342-1.501c-0.286-0.493-0.647-0.821-1.083-0.984
					c-0.436-0.164-0.883-0.112-1.342,0.153c-0.328,0.191-0.542,0.439-0.642,0.746c-0.101,0.306-0.125,0.627-0.075,0.962
					s0.148,0.79,0.296,1.362c0.182,0.693,0.298,1.267,0.349,1.723c0.051,0.457-0.015,0.911-0.198,1.363
					c-0.182,0.453-0.559,0.846-1.13,1.177c-0.442,0.256-0.924,0.379-1.449,0.371c-0.525-0.007-1.042-0.17-1.549-0.487
					c-0.508-0.32-0.942-0.789-1.304-1.412C288.143,623.39,287.939,622.794,287.878,622.201z"/>
				<path class="st1" d="M300.14,625.046l-2.96,1.858l2.026,3.228l-0.953,0.598l-2.026-3.228l-3.049,1.915l2.265,3.607l-0.953,0.598
					l-2.991-4.765l8.868-5.565l2.991,4.765l-0.953,0.597L300.14,625.046z"/>
				<path class="st1" d="M298.832,640.111l2.14-4.461l-0.926-1.365l-3.537,2.399l-0.767-1.129l8.651-5.87l1.896,2.794
					c0.443,0.653,0.706,1.281,0.789,1.884c0.082,0.603,0.009,1.146-0.22,1.626c-0.229,0.482-0.587,0.889-1.076,1.22
					c-0.596,0.405-1.238,0.589-1.927,0.555c-0.688-0.035-1.339-0.345-1.954-0.931l-2.15,4.632L298.832,640.111z M300.951,633.67
					l1.128,1.663c0.416,0.612,0.878,0.969,1.389,1.071c0.51,0.101,1.017-0.021,1.521-0.362c0.513-0.349,0.808-0.77,0.884-1.262
					c0.076-0.493-0.096-1.05-0.517-1.671l-1.128-1.663L300.951,633.67z"/>
				<path class="st1" d="M314.599,644.042l-10.751,3.046l-0.937-1.266l6.059-9.39l0.865,1.17l-5.294,8.002l9.202-2.722
					L314.599,644.042z"/>
				<path class="st1" d="M316.327,646.175l-8.22,6.462l-0.843-1.074l8.22-6.46L316.327,646.175z"/>
				<path class="st1" d="M315.892,649.651c0.919-0.172,1.812-0.102,2.675,0.213c0.863,0.312,1.607,0.84,2.231,1.583
					c0.733,0.873,1.162,1.812,1.287,2.817c0.126,1.005-0.072,1.98-0.596,2.929l-1.051-1.253c0.296-0.627,0.399-1.259,0.309-1.894
					c-0.09-0.638-0.379-1.246-0.868-1.828c-0.469-0.559-1.021-0.951-1.653-1.177c-0.634-0.227-1.296-0.265-1.986-0.115
					c-0.691,0.149-1.358,0.495-2.002,1.035c-0.636,0.533-1.087,1.127-1.354,1.781c-0.266,0.655-0.344,1.313-0.23,1.977
					c0.112,0.663,0.403,1.274,0.873,1.833c0.488,0.582,1.036,0.974,1.644,1.175c0.606,0.203,1.245,0.213,1.914,0.029l1.051,1.253
					c-1.017,0.344-2.007,0.366-2.971,0.065s-1.812-0.888-2.545-1.761c-0.624-0.744-1.017-1.565-1.18-2.467
					c-0.163-0.901-0.082-1.788,0.243-2.661c0.325-0.873,0.878-1.638,1.659-2.293C314.121,650.237,314.971,649.823,315.892,649.651z"
					/>
				<path class="st1" d="M325.176,658.379l-2.584,2.354l2.566,2.816l-0.831,0.758l-2.566-2.815l-2.661,2.424l2.869,3.148
					l-0.832,0.759l-3.789-4.158l7.739-7.052l3.789,4.158l-0.831,0.757L325.176,658.379z"/>
				<path class="st1" d="M323.924,670.364c-0.206-0.562-0.261-1.104-0.166-1.629c0.094-0.527,0.341-0.992,0.743-1.398l1.017,1.041
					c-0.316,0.379-0.47,0.812-0.461,1.3c0.008,0.487,0.25,0.976,0.725,1.462c0.455,0.465,0.929,0.718,1.424,0.759
					c0.494,0.041,0.924-0.116,1.289-0.473c0.285-0.279,0.441-0.586,0.466-0.917c0.025-0.333-0.031-0.662-0.168-0.989
					s-0.348-0.742-0.632-1.249c-0.354-0.618-0.611-1.14-0.772-1.562c-0.161-0.422-0.207-0.874-0.137-1.354
					c0.069-0.48,0.335-0.947,0.801-1.401c0.407-0.399,0.87-0.647,1.388-0.748c0.517-0.1,1.045-0.045,1.584,0.162
					c0.538,0.208,1.045,0.555,1.521,1.041c0.684,0.7,1.07,1.445,1.156,2.235s-0.133,1.496-0.656,2.119l-1.048-1.073
					c0.251-0.314,0.356-0.712,0.316-1.188c-0.041-0.479-0.273-0.936-0.7-1.372c-0.398-0.407-0.829-0.636-1.292-0.688
					c-0.462-0.052-0.883,0.108-1.263,0.479c-0.271,0.267-0.418,0.559-0.439,0.88s0.033,0.639,0.164,0.952
					c0.131,0.312,0.338,0.729,0.622,1.248c0.346,0.626,0.6,1.155,0.761,1.584c0.162,0.43,0.209,0.888,0.143,1.37
					c-0.065,0.483-0.335,0.957-0.807,1.418c-0.365,0.355-0.803,0.595-1.312,0.716c-0.511,0.121-1.052,0.09-1.622-0.093
					c-0.571-0.184-1.107-0.532-1.611-1.048C324.473,671.453,324.129,670.925,323.924,670.364z"/>
			</g>
			<g>
				<path class="st1" d="M665.945,682.402l-4.687-1.586l-1.243,1.086l2.811,3.221l-1.029,0.897l-6.873-7.878l2.544-2.219
					c0.595-0.52,1.187-0.856,1.775-1.012c0.588-0.154,1.135-0.146,1.641,0.021c0.506,0.169,0.952,0.476,1.34,0.92
					c0.474,0.543,0.734,1.158,0.783,1.846s-0.18,1.371-0.687,2.053l4.857,1.575L665.945,682.402z M659.296,681.077l1.514-1.321
					c0.558-0.487,0.856-0.989,0.896-1.508c0.039-0.518-0.142-1.007-0.544-1.467c-0.407-0.467-0.86-0.709-1.359-0.726
					c-0.498-0.016-1.029,0.223-1.595,0.716l-1.515,1.321L659.296,681.077z"/>
				<path class="st1" d="M663.239,672.088l2.427,2.516l2.742-2.645l0.78,0.81l-2.742,2.645l2.5,2.591l3.066-2.957l0.78,0.81
					l-4.049,3.905l-7.269-7.536l4.049-3.905l0.781,0.81L663.239,672.088z"/>
				<path class="st1" d="M674.292,659.373l7.519,7.157l-0.941,0.988l-5.606-5.336l3.228,7.835l-0.662,0.695l-8.005-2.837
					l5.617,5.347l-0.941,0.989l-7.519-7.156l1.013-1.066l8.862,3.135l-3.567-8.696L674.292,659.373z"/>
				<path class="st1" d="M684.482,662.611c-0.866,0.312-1.759,0.377-2.681,0.199s-1.769-0.6-2.543-1.264
					c-0.773-0.664-1.318-1.438-1.635-2.322c-0.314-0.883-0.385-1.777-0.209-2.681s0.579-1.723,1.212-2.459
					c0.638-0.743,1.39-1.271,2.256-1.581c0.867-0.311,1.757-0.377,2.671-0.199c0.915,0.18,1.763,0.604,2.544,1.274
					c0.782,0.672,1.33,1.445,1.646,2.322c0.314,0.876,0.385,1.767,0.209,2.67c-0.177,0.903-0.583,1.727-1.222,2.471
					C686.098,661.777,685.349,662.3,684.482,662.611z M686.728,658.44c0.124-0.665,0.056-1.33-0.205-1.995
					c-0.26-0.663-0.704-1.266-1.334-1.807c-0.638-0.548-1.303-0.897-1.995-1.051c-0.691-0.152-1.356-0.12-1.992,0.1
					c-0.636,0.218-1.194,0.608-1.677,1.17c-0.481,0.562-0.782,1.173-0.902,1.834c-0.12,0.662-0.052,1.323,0.204,1.984
					s0.703,1.266,1.34,1.813c0.631,0.54,1.293,0.888,1.989,1.044s1.364,0.123,2.003-0.099c0.64-0.223,1.196-0.611,1.672-1.165
					S686.605,659.105,686.728,658.44z"/>
				<path class="st1" d="M687.138,643.812l0.872,0.688l-1.765,2.238l7.34,5.785l-0.846,1.071l-7.339-5.784l-1.773,2.25l-0.871-0.688
					L687.138,643.812z"/>
				<path class="st1" d="M689.759,642.144l2.815,2.071l2.258-3.068l0.906,0.666l-2.259,3.069l2.9,2.134l2.524-3.431l0.907,0.667
					l-3.335,4.529l-8.433-6.206l3.334-4.529l0.906,0.666L689.759,642.144z"/>
				<path class="st1" d="M701.888,622.234l7.163,8.196l-0.826,1.287l-8.396-2.499l5.722,6.665l-0.806,1.284l-10.391-3.192
					l0.785-1.225l8.692,2.868l-6.101-6.908l0.826-1.288l8.732,2.752l-6.197-6.703L701.888,622.234z"/>
				<path class="st1" d="M712.111,624.167c-0.789,0.473-1.654,0.71-2.593,0.713c-0.938,0.004-1.852-0.245-2.739-0.748
					c-0.888-0.502-1.571-1.156-2.052-1.962c-0.48-0.807-0.722-1.67-0.724-2.589c-0.003-0.921,0.235-1.804,0.713-2.648
					c0.482-0.853,1.119-1.515,1.909-1.987c0.789-0.473,1.65-0.709,2.582-0.71c0.931-0.002,1.846,0.251,2.742,0.758
					c0.896,0.508,1.584,1.161,2.062,1.96s0.719,1.659,0.721,2.579c0.002,0.921-0.238,1.807-0.721,2.659
					C713.535,623.036,712.901,623.694,712.111,624.167z M713.509,619.64c-0.008-0.677-0.204-1.315-0.587-1.918
					c-0.384-0.602-0.937-1.106-1.659-1.516c-0.73-0.413-1.451-0.628-2.159-0.645c-0.709-0.016-1.354,0.145-1.937,0.482
					c-0.581,0.337-1.055,0.827-1.419,1.472s-0.541,1.303-0.531,1.975c0.011,0.673,0.206,1.309,0.585,1.907
					c0.379,0.6,0.934,1.106,1.665,1.52c0.723,0.409,1.439,0.622,2.153,0.642c0.713,0.018,1.362-0.144,1.946-0.485
					c0.583-0.342,1.056-0.831,1.415-1.466C713.34,620.972,713.516,620.317,713.509,619.64z"/>
				<path class="st1" d="M719.964,610.788l-4.939,0.28l-0.748,1.47l3.81,1.939l-0.619,1.216l-9.317-4.74l1.53-3.009
					c0.358-0.703,0.782-1.237,1.269-1.601c0.488-0.363,0.999-0.561,1.531-0.593s1.062,0.085,1.587,0.354
					c0.642,0.326,1.114,0.799,1.416,1.418c0.302,0.62,0.345,1.34,0.129,2.161l5.095-0.353L719.964,610.788z M713.301,612.042
					l0.911-1.791c0.335-0.66,0.425-1.237,0.267-1.732c-0.157-0.495-0.508-0.881-1.051-1.158c-0.553-0.281-1.063-0.336-1.532-0.165
					s-0.873,0.592-1.213,1.26l-0.912,1.791L713.301,612.042z"/>
				<path class="st1" d="M724.045,602.182l-6.136,1.908l4.33,2l-0.572,1.239l-9.492-4.383l0.573-1.239l4.398,2.03l-2.588-5.953
					l0.724-1.565l2.765,6.498l6.746-2.155L724.045,602.182z"/>
				<path class="st1" d="M718.136,589.428l1.022,0.43l-1.76,4.19l3.249,1.365l1.43-3.402l1.023,0.431l-1.43,3.401l4.343,1.824
					l-0.528,1.259l-9.64-4.05L718.136,589.428z"/>
				<path class="st1" d="M728.694,589.555c-0.706,0.59-1.521,0.962-2.448,1.111c-0.926,0.151-1.866,0.049-2.823-0.309
					c-0.955-0.356-1.733-0.895-2.334-1.615c-0.602-0.722-0.975-1.535-1.121-2.444c-0.147-0.909-0.051-1.816,0.288-2.726
					c0.343-0.918,0.867-1.672,1.573-2.264c0.706-0.59,1.519-0.959,2.438-1.106c0.92-0.148,1.862-0.042,2.827,0.317
					c0.965,0.361,1.746,0.897,2.344,1.612c0.599,0.714,0.971,1.525,1.118,2.434c0.146,0.909,0.048,1.822-0.295,2.74
					C729.923,588.215,729.399,588.964,728.694,589.555z M729.363,584.866c-0.113-0.666-0.407-1.267-0.88-1.802
					c-0.474-0.534-1.1-0.946-1.877-1.236c-0.787-0.294-1.532-0.393-2.234-0.297c-0.702,0.095-1.314,0.355-1.836,0.779
					c-0.521,0.425-0.911,0.984-1.17,1.677c-0.259,0.694-0.33,1.371-0.215,2.033c0.116,0.662,0.408,1.26,0.877,1.792
					c0.468,0.532,1.096,0.945,1.883,1.239c0.778,0.291,1.52,0.389,2.228,0.295s1.323-0.355,1.846-0.784
					c0.522-0.43,0.912-0.986,1.167-1.67C729.407,586.209,729.477,585.533,729.363,584.866z"/>
				<path class="st1" d="M734.346,575.126l-4.834,1.051l-0.509,1.57l4.066,1.317l-0.42,1.299l-9.946-3.224l1.04-3.21
					c0.244-0.751,0.578-1.345,1.003-1.78c0.425-0.435,0.897-0.71,1.418-0.826c0.521-0.114,1.062-0.081,1.624,0.101
					c0.685,0.223,1.225,0.615,1.62,1.18s0.55,1.27,0.466,2.114l4.977-1.146L734.346,575.126z M727.962,577.409l0.619-1.912
					c0.229-0.704,0.226-1.288-0.008-1.752c-0.232-0.465-0.64-0.791-1.22-0.979c-0.59-0.191-1.103-0.165-1.539,0.077
					c-0.436,0.242-0.769,0.721-1.001,1.434l-0.619,1.913L727.962,577.409z"/>
				<path class="st1" d="M727.868,569.107c-0.663-0.661-1.109-1.436-1.341-2.324s-0.218-1.801,0.041-2.736
					c0.304-1.098,0.835-1.984,1.593-2.656c0.756-0.673,1.674-1.062,2.75-1.169l-0.436,1.576c-0.685,0.111-1.264,0.385-1.736,0.818
					c-0.473,0.437-0.811,1.02-1.014,1.752c-0.195,0.702-0.205,1.38-0.033,2.029c0.173,0.649,0.517,1.217,1.03,1.701
					c0.515,0.485,1.177,0.84,1.986,1.063c0.8,0.222,1.545,0.257,2.235,0.105s1.277-0.461,1.759-0.93
					c0.483-0.468,0.821-1.054,1.017-1.757c0.203-0.732,0.215-1.406,0.038-2.021c-0.178-0.615-0.531-1.146-1.062-1.594l0.437-1.576
					c0.859,0.643,1.438,1.447,1.737,2.411c0.299,0.965,0.295,1.996-0.009,3.095c-0.259,0.936-0.713,1.725-1.364,2.369
					c-0.65,0.646-1.427,1.082-2.331,1.309c-0.903,0.228-1.846,0.205-2.829-0.067S728.53,569.768,727.868,569.107z"/>
				<path class="st1" d="M729.805,556.503l3.402,0.796l0.868-3.71l1.096,0.257l-0.868,3.709l3.506,0.82l0.971-4.147l1.095,0.256
					l-1.281,5.478l-10.194-2.385l1.281-5.478l1.096,0.257L729.805,556.503z"/>
			</g>
			<g>
				<path class="st1" d="M444.935,728.528l-2.489,10.155l-1.327-0.325l1.131-4.604l-5.173-1.269l-1.129,4.604l-1.325-0.324
					l2.489-10.154l1.327,0.325l-1.094,4.458l5.172,1.269l1.093-4.458L444.935,728.528z"/>
				<path class="st1" d="M450.232,740.473l-1.524-4.707l-1.612-0.352l-0.91,4.178l-1.332-0.291l2.224-10.216l3.297,0.719
					c0.772,0.168,1.396,0.441,1.871,0.821c0.475,0.38,0.796,0.823,0.962,1.33s0.187,1.049,0.061,1.625
					c-0.152,0.704-0.491,1.28-1.014,1.729c-0.523,0.448-1.209,0.673-2.058,0.672l1.633,4.839L450.232,740.473z M447.328,734.345
					l1.966,0.427c0.723,0.157,1.303,0.098,1.743-0.181c0.438-0.277,0.723-0.715,0.853-1.311c0.132-0.605,0.056-1.114-0.229-1.523
					c-0.284-0.41-0.793-0.694-1.525-0.854l-1.963-0.428L447.328,734.345z"/>
				<path class="st1" d="M466.076,732.7l-0.181,1.095l-2.812-0.459l-1.505,9.224l-1.348-0.221l1.506-9.222l-2.827-0.462l0.178-1.096
					L466.076,732.7z"/>
				<path class="st1" d="M468.84,734.188l-0.448,3.466l3.777,0.489l-0.143,1.115l-3.78-0.488l-0.461,3.57l4.226,0.546l-0.145,1.116
					l-5.578-0.722l1.341-10.384l5.579,0.722l-0.145,1.116L468.84,734.188z"/>
				<path class="st1" d="M475.073,736.35c0.529-0.772,1.21-1.353,2.043-1.74c0.832-0.389,1.73-0.54,2.697-0.454
					c1.136,0.1,2.103,0.461,2.901,1.084c0.799,0.622,1.348,1.454,1.647,2.494l-1.63-0.144c-0.233-0.653-0.606-1.173-1.118-1.56
					c-0.514-0.387-1.149-0.613-1.905-0.68c-0.728-0.064-1.396,0.047-2.003,0.335s-1.104,0.729-1.486,1.322
					c-0.385,0.594-0.613,1.309-0.687,2.146c-0.073,0.826,0.027,1.565,0.301,2.217c0.274,0.652,0.686,1.173,1.233,1.562
					s1.185,0.616,1.912,0.681c0.757,0.066,1.421-0.043,1.994-0.329c0.572-0.285,1.031-0.729,1.375-1.331l1.629,0.144
					c-0.477,0.962-1.162,1.677-2.057,2.145c-0.896,0.469-1.91,0.652-3.046,0.553c-0.966-0.086-1.824-0.39-2.576-0.913
					c-0.754-0.523-1.322-1.208-1.709-2.056c-0.388-0.847-0.536-1.779-0.446-2.795C474.234,738.015,474.543,737.122,475.073,736.35z"
					/>
				<path class="st1" d="M494.506,735.149l-0.436,10.445l-1.364-0.056l0.198-4.736l-5.321-0.223l-0.197,4.737l-1.364-0.058
					l0.436-10.445l1.364,0.057l-0.192,4.586l5.322,0.222l0.191-4.586L494.506,735.149z"/>
				<path class="st1" d="M504.925,745.627l-1.365,0.004l-5.513-8.311l0.022,8.325l-1.365,0.004l-0.028-10.47l1.365-0.004
					l5.512,8.295l-0.021-8.31l1.365-0.004L504.925,745.627z"/>
				<path class="st1" d="M509.619,744.89c-0.822-0.414-1.485-1.017-1.99-1.807c-0.505-0.792-0.784-1.696-0.834-2.715
					c-0.052-1.019,0.135-1.946,0.559-2.783c0.424-0.838,1.022-1.504,1.8-1.998c0.776-0.495,1.649-0.766,2.618-0.814
					c0.979-0.05,1.878,0.134,2.7,0.548c0.821,0.415,1.482,1.015,1.982,1.801c0.499,0.785,0.775,1.693,0.827,2.722
					c0.051,1.028-0.133,1.959-0.551,2.791c-0.42,0.832-1.017,1.495-1.793,1.989c-0.776,0.495-1.653,0.767-2.632,0.815
					C511.336,745.488,510.44,745.305,509.619,744.89z M514.191,743.648c0.565-0.369,1.001-0.876,1.305-1.522
					c0.303-0.646,0.434-1.383,0.392-2.213c-0.042-0.839-0.246-1.562-0.611-2.169s-0.848-1.066-1.443-1.377
					c-0.597-0.311-1.265-0.447-2.003-0.41c-0.739,0.037-1.39,0.24-1.952,0.608s-0.995,0.873-1.298,1.515
					c-0.304,0.641-0.434,1.381-0.393,2.22c0.042,0.828,0.245,1.549,0.611,2.162c0.366,0.611,0.85,1.073,1.451,1.384
					s1.267,0.447,1.996,0.411C512.974,744.219,513.623,744.017,514.191,743.648z"/>
				<path class="st1" d="M520.829,743.643l3.646-0.324l0.099,1.105l-5.006,0.445l-0.926-10.414l1.358-0.121L520.829,743.643z"/>
				<path class="st1" d="M528.282,743.436c-0.851-0.35-1.56-0.899-2.124-1.649c-0.563-0.749-0.911-1.629-1.042-2.642
					c-0.129-1.011-0.014-1.95,0.343-2.818c0.357-0.867,0.904-1.577,1.641-2.131c0.735-0.553,1.583-0.891,2.546-1.015
					c0.973-0.124,1.884-0.012,2.735,0.338s1.557,0.896,2.116,1.643c0.559,0.745,0.904,1.628,1.035,2.649s0.02,1.964-0.333,2.825
					c-0.354,0.862-0.898,1.569-1.634,2.123c-0.736,0.553-1.59,0.892-2.562,1.016C530.041,743.899,529.135,743.785,528.282,743.436z
					 M532.744,741.843c0.537-0.411,0.932-0.951,1.184-1.618c0.253-0.668,0.326-1.413,0.22-2.236
					c-0.105-0.834-0.365-1.538-0.777-2.116c-0.411-0.577-0.926-0.997-1.545-1.261c-0.618-0.264-1.295-0.349-2.029-0.255
					s-1.366,0.347-1.898,0.758c-0.532,0.41-0.925,0.948-1.177,1.61c-0.254,0.662-0.326,1.41-0.22,2.243
					c0.105,0.824,0.363,1.526,0.776,2.108s0.931,1.005,1.555,1.268c0.623,0.263,1.297,0.348,2.021,0.256
					C531.576,742.507,532.207,742.254,532.744,741.843z"/>
				<path class="st1" d="M544.792,733.963c-0.394-0.55-0.89-0.94-1.49-1.174s-1.26-0.285-1.979-0.156
					c-0.718,0.128-1.336,0.409-1.852,0.842c-0.518,0.434-0.886,0.987-1.105,1.66c-0.22,0.675-0.257,1.416-0.113,2.223
					c0.145,0.808,0.438,1.487,0.876,2.038s0.976,0.939,1.61,1.166c0.636,0.228,1.312,0.276,2.03,0.147
					c1.004-0.18,1.777-0.627,2.318-1.345c0.543-0.716,0.777-1.596,0.701-2.64l-4.104,0.735l-0.195-1.093l5.538-0.991l0.185,1.033
					c0.072,0.861-0.056,1.685-0.381,2.469c-0.328,0.785-0.824,1.447-1.489,1.988s-1.45,0.892-2.355,1.054
					c-0.955,0.171-1.865,0.104-2.734-0.204c-0.868-0.307-1.602-0.818-2.201-1.533c-0.602-0.716-0.991-1.575-1.171-2.579
					s-0.112-1.948,0.202-2.833c0.314-0.884,0.824-1.62,1.532-2.209c0.707-0.589,1.539-0.969,2.493-1.14
					c1.093-0.196,2.108-0.098,3.047,0.293s1.688,1.044,2.248,1.96L544.792,733.963z"/>
				<path class="st1" d="M554.906,728.675l-1.9,7.096l0.86,3.851l-1.331,0.298l-0.861-3.85l-4.76-5.606l1.479-0.33l3.673,4.604
					l1.362-5.73L554.906,728.675z"/>
			</g>
		</g>
	</g>
</g>
</svg>
