<svg id="vuesax_bold_facebook" data-name="vuesax/bold/facebook" xmlns="http://www.w3.org/2000/svg" width="29.244" height="29.244" viewBox="0 0 29.244 29.244">
  <g id="facebook">
    <path id="BG_111" data-name="BG 111" d="M0,0H29.244V29.244H0Z" fill="none" opacity="0.58"/>
    <path id="Vector" d="M25.471,18.072c0,4.636-2.764,7.4-7.4,7.4H16.556A1.277,1.277,0,0,1,15.282,24.2V16.849a.636.636,0,0,1,.624-.637l2.241-.038a.406.406,0,0,0,.369-.318l.446-2.432a.385.385,0,0,0-.382-.446l-2.713.038a.647.647,0,0,1-.649-.624l-.051-3.12a.383.383,0,0,1,.382-.382l3.056-.051a.375.375,0,0,0,.382-.382L18.937,5.4a.375.375,0,0,0-.382-.382l-3.439.051A3.816,3.816,0,0,0,11.36,8.953l.064,3.5a.631.631,0,0,1-.624.65l-1.528.025a.375.375,0,0,0-.382.382l.038,2.42a.375.375,0,0,0,.382.382l1.528-.025a.647.647,0,0,1,.649.624l.115,7.259a1.275,1.275,0,0,1-1.274,1.3H7.4c-4.636,0-7.4-2.764-7.4-7.412V7.4C0,2.764,2.764,0,7.4,0H18.071c4.636,0,7.4,2.764,7.4,7.4V18.072Z" transform="translate(1.887 1.887)" fill="#1b2b36"/>
    <path id="Vector-2" data-name="Vector" d="M0,0H29.244V29.244H0Z" fill="none" opacity="0"/>
  </g>
</svg>
