<svg id="Component_91_1" data-name="Component 91 – 1" xmlns="http://www.w3.org/2000/svg" xmlns:xlink="http://www.w3.org/1999/xlink" width="26.385" height="26.367" viewBox="0 0 26.385 26.367">
  <defs>
    <clipPath id="clip-path">
      <rect id="Rectangle_343" data-name="Rectangle 343" width="26.386" height="26.367" fill="#1b2b36"/>
    </clipPath>
  </defs>
  <g id="Group_5506" data-name="Group 5506" clip-path="url(#clip-path)">
    <path id="Path_89" data-name="Path 89" d="M0,20.446V5.926c.018-.064.037-.128.055-.191a10.792,10.792,0,0,1,.5-1.744A6.43,6.43,0,0,1,6.711.013c4.307-.026,8.615,0,12.922-.01a6.424,6.424,0,0,1,3.142.734,6.255,6.255,0,0,1,3.565,5.59c.081,4.571.034,9.145.009,13.717a5.555,5.555,0,0,1-.313,1.759,6.5,6.5,0,0,1-4.87,4.414c-.239.058-.481.1-.722.151H5.922c-.055-.018-.11-.04-.166-.053a10.248,10.248,0,0,1-1.2-.273A6.543,6.543,0,0,1,.15,21.167c-.058-.238-.1-.481-.15-.721M13.171,7.707a5.479,5.479,0,1,0,5.492,5.46,5.469,5.469,0,0,0-5.492-5.46m8.785-1.661a1.634,1.634,0,1,0-1.626,1.635,1.62,1.62,0,0,0,1.626-1.635" transform="translate(0 0)" fill="#1b2b36"/>
  </g>
</svg>
