<?xml version="1.0" standalone="no"?>
<svg viewBox="0 0 200 200" xmlns="http://www.w3.org/2000/svg">
  <path fill="#3CA8CE" d="M43.1,-64.7C51.6,-61.6,51.2,-42.4,51.2,-27.7C51.1,-13,51.2,-2.8,52.7,9.7C54.2,22.2,57,37.1,52.1,48.1C47.1,59.1,34.4,66.4,22.3,64.9C10.2,63.4,-1.2,53.2,-11.7,46.9C-22.2,40.6,-31.8,38.2,-44.3,33.2C-56.8,28.1,-72.2,20.3,-71,11.8C-69.8,3.2,-52.1,-6.3,-43.3,-17.4C-34.5,-28.6,-34.7,-41.5,-29,-45.9C-23.3,-50.3,-11.6,-46.2,2.8,-50.6C17.3,-55,34.6,-67.9,43.1,-64.7Z" transform="translate(100 100)" />
</svg>
