<svg id="vuesax_bold_facebook" data-name="vuesax/bold/facebook" xmlns="http://www.w3.org/2000/svg" width="36.161" height="36.162" viewBox="0 0 36.161 36.162">
  <g id="facebook">
    <path id="BG_111" data-name="BG 111" d="M0,0H36.161V36.162H0Z" fill="none" opacity="0.58"/>
    <path id="Vector" d="M31.5,22.346c0,5.732-3.417,9.15-9.149,9.15H20.472A1.579,1.579,0,0,1,18.9,29.921V20.835a.787.787,0,0,1,.772-.787L22.44,20a.5.5,0,0,0,.457-.394l.551-3.008a.476.476,0,0,0-.472-.551l-3.354.047a.8.8,0,0,1-.8-.772l-.063-3.858a.474.474,0,0,1,.472-.472l3.779-.063a.464.464,0,0,0,.472-.472l-.063-3.78a.464.464,0,0,0-.472-.472l-4.252.063a4.719,4.719,0,0,0-4.646,4.8l.079,4.331a.78.78,0,0,1-.772.8l-1.89.031a.464.464,0,0,0-.472.472l.047,2.992a.464.464,0,0,0,.472.472l1.89-.031a.8.8,0,0,1,.8.772l.142,8.976A1.576,1.576,0,0,1,12.771,31.5H9.149C3.417,31.5,0,28.079,0,22.331V9.15C0,3.417,3.417,0,9.149,0h13.2C28.078,0,31.5,3.417,31.5,9.15v13.2Z" transform="translate(2.333 2.333)" fill="#fff"/>
    <path id="Vector-2" data-name="Vector" d="M0,0H36.161V36.162H0Z" fill="none" opacity="0"/>
  </g>
</svg>
