<svg id="Component_27_1" data-name="Component 27 – 1" xmlns="http://www.w3.org/2000/svg" width="59.273" height="59.273" viewBox="0 0 59.273 59.273">
  <g id="Group_5346" data-name="Group 5346">
    <g id="whatsapp_bulk" data-name="whatsapp/bulk" transform="translate(0 0)">
      <g id="vuesax_bulk_whatsapp" data-name="vuesax/bulk/whatsapp">
        <g id="whatsapp">
          <g id="Group_16" data-name="Group 16" transform="translate(4.924 4.938)">
            <path id="Vector" d="M12.216,46.012a24.719,24.719,0,0,0,12.5,3.384A25.073,25.073,0,0,0,49.36,23.241,24.705,24.705,0,1,0,3.3,37.047L1.1,45.222A2.461,2.461,0,0,0,4.14,48.235Z" transform="translate(0 0)" fill="#3ec350"/>
            <g id="Group" transform="translate(12.364 12.3)">
              <path id="Vector-2" data-name="Vector" d="M24.7,20.227a3.04,3.04,0,0,1-.321,1.358,5.892,5.892,0,0,1-.84,1.26A5.628,5.628,0,0,1,21.511,24.3a6.044,6.044,0,0,1-2.42.469,10.059,10.059,0,0,1-4.026-.914,22.62,22.62,0,0,1-4.248-2.445,35.688,35.688,0,0,1-4.05-3.458A35.319,35.319,0,0,1,3.31,13.9,21.728,21.728,0,0,1,.889,9.681,10.458,10.458,0,0,1,0,5.631a6.452,6.452,0,0,1,.445-2.4A5.515,5.515,0,0,1,1.877,1.161,3.569,3.569,0,0,1,4.445,0,2.416,2.416,0,0,1,5.458.222,2.045,2.045,0,0,1,6.3.914l2.84,4.075a3.986,3.986,0,0,1,.494.864,1.8,1.8,0,0,1,.173.766,1.771,1.771,0,0,1-.272.889,4.345,4.345,0,0,1-.691.889L7.9,9.385a.634.634,0,0,0-.2.494,1.24,1.24,0,0,0,.049.3,1.7,1.7,0,0,1,.1.247A9.9,9.9,0,0,0,9.015,12c.568.642,1.161,1.309,1.8,1.951.667.667,1.309,1.26,1.976,1.828A9.482,9.482,0,0,0,14.4,16.918c.074.025.148.074.222.1a.81.81,0,0,0,.84-.173l.939-.939a3.967,3.967,0,0,1,.889-.692,1.7,1.7,0,0,1,.889-.272,1.8,1.8,0,0,1,.766.173,4.5,4.5,0,0,1,.864.494l4.1,2.914a2.085,2.085,0,0,1,.692.79A8.637,8.637,0,0,1,24.7,20.227Z" fill="#fff"/>
            </g>
          </g>
          <path id="Vector-3" data-name="Vector" d="M0,0H59.273V59.273H0Z" fill="none" opacity="0"/>
        </g>
      </g>
    </g>
  </g>
</svg>
