<svg id="Component_90_1" data-name="Component 90 – 1" xmlns="http://www.w3.org/2000/svg" xmlns:xlink="http://www.w3.org/1999/xlink" width="32.627" height="32.604" viewBox="0 0 32.627 32.604">
  <defs>
    <clipPath id="clip-path">
      <rect id="Rectangle_343" data-name="Rectangle 343" width="32.627" height="32.604" fill="#fff"/>
    </clipPath>
  </defs>
  <g id="Group_5506" data-name="Group 5506" clip-path="url(#clip-path)">
    <path id="Path_89" data-name="Path 89" d="M0,25.282V7.328c.023-.079.046-.158.068-.237A13.345,13.345,0,0,1,.682,4.935,7.951,7.951,0,0,1,8.3.016C13.624-.017,18.95.013,24.277,0A7.944,7.944,0,0,1,28.162.91,7.735,7.735,0,0,1,32.57,7.823c.1,5.652.042,11.308.011,16.961a6.869,6.869,0,0,1-.387,2.175,8.036,8.036,0,0,1-6.022,5.458c-.3.072-.595.125-.892.186H7.323c-.068-.022-.135-.049-.205-.065A12.672,12.672,0,0,1,5.637,32.2,8.091,8.091,0,0,1,.186,26.174c-.072-.295-.125-.594-.186-.891M16.287,9.531a6.775,6.775,0,1,0,6.791,6.752,6.762,6.762,0,0,0-6.791-6.752M27.151,7.477A2.02,2.02,0,1,0,25.141,9.5a2,2,0,0,0,2.01-2.022" transform="translate(0 0)" fill="#fff"/>
  </g>
</svg>
