<svg xmlns="http://www.w3.org/2000/svg" xmlns:xlink="http://www.w3.org/1999/xlink" width="288.469" height="18.952" viewBox="0 0 288.469 18.952">
  <defs>
    <clipPath id="clip-path">
      <rect id="Rectangle_275" data-name="Rectangle 275" width="288.469" height="17.954" fill="none" stroke="rgba(0,0,0,0)" stroke-miterlimit="10" stroke-width="1"/>
    </clipPath>
  </defs>
  <g id="Group_5342" data-name="Group 5342" transform="translate(0 0.499)">
    <path id="Path_4" data-name="Path 4" d="M478.807,7.992v9.965h3.036v-7.1H488.7l.911-2.862Zm0-7.988V2.866h10.636L490.354,0Z" transform="translate(-353.212 -0.003)" fill="#333" stroke="rgba(0,0,0,0)" stroke-miterlimit="10" stroke-width="1"/>
    <g id="Group_5341" data-name="Group 5341" transform="translate(0 0)">
      <g id="Group_5340" data-name="Group 5340" clip-path="url(#clip-path)">
        <path id="Path_5" data-name="Path 5" d="M538.479,8.512h8.187q1.1,0,1.1-1.145V4.011q0-1.145-1.1-1.145H539.39L538.479,0h8.286Q550.8,0,550.8,4.219v2.94q0,3.3-2.489,4.007l3.321,6.791h-3.3l-3.185-6.582H539.39" transform="translate(-397.231 -0.003)" fill="#333" stroke="rgba(0,0,0,0)" stroke-miterlimit="10" stroke-width="1"/>
        <path id="Path_6" data-name="Path 6" d="M604.411,15.094h11.547l-.91,2.862H604.411m0-10.745h10.8l-.91,2.862h-9.89m0-10.069h11.547l-.91,2.862H604.411" transform="translate(-445.869 -0.003)" fill="#333" stroke="rgba(0,0,0,0)" stroke-miterlimit="10" stroke-width="1"/>
        <path id="Path_7" data-name="Path 7" d="M665.98,15.094h11.547l-.911,2.862H665.98m0-10.745h10.8l-.911,2.862h-9.89M665.98,0h11.547l-.911,2.862H665.98" transform="translate(-491.288 -0.003)" fill="#333" stroke="rgba(0,0,0,0)" stroke-miterlimit="10" stroke-width="1"/>
        <path id="Path_8" data-name="Path 8" d="M727.549,17.956V0h3.036v15.09h7.764v2.862Z" transform="translate(-536.707 -0.003)" fill="#333" stroke="rgba(0,0,0,0)" stroke-miterlimit="10" stroke-width="1"/>
        <path id="Path_9" data-name="Path 9" d="M850.5,17.956V0h3.309l7.64,12.827V0h3.01V17.956h-3.285L853.536,5.129V17.956Z" transform="translate(-627.407 -0.003)" fill="#333" stroke="rgba(0,0,0,0)" stroke-miterlimit="10" stroke-width="1"/>
        <path id="Path_10" data-name="Path 10" d="M988.056,15.094H999.6l-.91,2.862H988.056m0-10.745h10.8l-.91,2.862h-9.89m0-10.069H999.6l-.91,2.862H988.056" transform="translate(-728.88 -0.003)" fill="#333" stroke="rgba(0,0,0,0)" stroke-miterlimit="10" stroke-width="1"/>
        <path id="Path_11" data-name="Path 11" d="M1049.626,8.512h8.187q1.1,0,1.095-1.145V4.011q0-1.145-1.095-1.145h-6.365L1049.626,0h8.286q4.031,0,4.032,4.215v2.94q0,3.3-2.488,4.007l3.314,6.791h-3.29l-3.185-6.582h-4.848" transform="translate(-774.3 -0.003)" fill="#333" stroke="rgba(0,0,0,0)" stroke-miterlimit="10" stroke-width="1"/>
        <path id="Path_12" data-name="Path 12" d="M1.249,15.092H4.987q3.513,0,3.52-3.669l.009-4.892Q8.523,2.863,5.01,2.862H1.273L.034,0H4.841q6.727,0,6.714,7.026l-.008,3.9q-.013,7.026-6.741,7.026H0" transform="translate(0 0)" fill="#f5af00" stroke="rgba(0,0,0,0)" stroke-miterlimit="10" stroke-width="1"/>
        <path id="Path_13" data-name="Path 13" d="M55.625,0h3.256l4.07,8.171L67.054,0h3.283L64.465,11.5l-.012,6.453h-3.04l.012-6.453Z" transform="translate(-41.034 0)" fill="#f5af00" stroke="rgba(0,0,0,0)" stroke-miterlimit="10" stroke-width="1"/>
        <path id="Path_14" data-name="Path 14" d="M124.994,17.954,125.028,0h3.314l7.625,12.828L135.991,0h3.014l-.034,17.954h-3.289L128.058,5.126l-.025,12.828Z" transform="translate(-92.207 0)" fill="#f5af00" stroke="rgba(0,0,0,0)" stroke-miterlimit="10" stroke-width="1"/>
        <path id="Path_15" data-name="Path 15" d="M202.773,11.111,200.3,2.863h-.473l-2.507,8.249-.853,2.862-1.179,3.981h-3.106L197.711,0h4.709l5.464,17.954h-3.106l-1.189-3.981Z" transform="translate(-141.769 0)" fill="#f5af00" stroke="rgba(0,0,0,0)" stroke-miterlimit="10" stroke-width="1"/>
        <path id="Path_16" data-name="Path 16" d="M265.951,17.954,265.985,0H269.7l5.21,11.632L280.137,0h3.737l-.034,17.954H280.8l.024-12.568-4.579,10.122H273.53L269.015,5.386l-.024,12.568Z" transform="translate(-196.19 0)" fill="#f5af00" stroke="rgba(0,0,0,0)" stroke-miterlimit="10" stroke-width="1"/>
        <path id="Path_17" data-name="Path 17" d="M355.047,17.954,355.081,0h3.04l-.034,17.954Z" transform="translate(-261.915 0)" fill="#f5af00" stroke="rgba(0,0,0,0)" stroke-miterlimit="10" stroke-width="1"/>
        <path id="Path_18" data-name="Path 18" d="M397.376,2.862h-3.737q-3.513,0-3.52,3.669l-.009,4.892q-.007,3.669,3.506,3.669h3.737l1.238,2.862h-4.807q-6.727,0-6.714-7.026l.008-3.9Q387.092,0,393.819,0h4.807" transform="translate(-285.539 0)" fill="#f5af00" stroke="rgba(0,0,0,0)" stroke-miterlimit="10" stroke-width="1"/>
        <path id="Path_19" data-name="Path 19" d="M935.353,2.862h-3.737q-3.513,0-3.52,3.669l-.009,4.892q-.007,3.669,3.506,3.669h3.737l1.238,2.862h-4.807q-6.727,0-6.714-7.026l.008-3.9Q925.069,0,931.8,0H936.6" transform="translate(-682.4 0)" fill="#333" stroke="rgba(0,0,0,0)" stroke-miterlimit="10" stroke-width="1"/>
        <path id="Path_20" data-name="Path 20" d="M787.375,11.111,784.9,2.863h-.473l-2.507,8.249-.853,2.862-1.179,3.981h-3.106L782.313,0h4.709l5.464,17.954H789.38l-1.188-3.981Z" transform="translate(-573.025 0)" fill="#333" stroke="rgba(0,0,0,0)" stroke-miterlimit="10" stroke-width="1"/>
      </g>
    </g>
  </g>
</svg>
