<svg id="Component_87_1" data-name="Component 87 – 1" xmlns="http://www.w3.org/2000/svg" width="67" height="67.424" viewBox="0 0 67 67.424">
  <g id="Component_30_4" data-name="Component 30 – 4">
    <g id="Rectangle_277" data-name="Rectangle 277" fill="none" stroke="#3273f1" stroke-width="0.3">
      <rect width="67" height="67.424" rx="33.5" stroke="none"/>
      <rect x="0.15" y="0.15" width="66.7" height="67.124" rx="33.35" fill="none"/>
    </g>
  </g>
  <g id="map_bold" data-name="map/bold" transform="translate(18 16.006)">
    <g id="vuesax_bold_map" data-name="vuesax/bold/map">
      <g id="map">
        <path id="Vector" d="M0,0H35.767V36.313H0Z" fill="none" opacity="0"/>
        <path id="Vector-2" data-name="Vector" d="M1.564,0A1.564,1.564,0,1,0,3.129,1.564,1.559,1.559,0,0,0,1.564,0Z" transform="translate(12.091 11.298)" fill="#df2e1e"/>
        <path id="Vector-3" data-name="Vector" d="M28.669,4.564C27.431,1.636,24.706,0,20.9,0H8.559A8.639,8.639,0,0,0,0,8.722V21.3c0,3.873,1.606,6.65,4.479,7.911a.737.737,0,0,0,.81-.165L28.507,5.389A.73.73,0,0,0,28.669,4.564Zm-16.1,10.808a2.924,2.924,0,0,1-2.077.841,2.988,2.988,0,0,1-2.077-.841c-1.5-1.441-3.153-3.738-2.519-6.47a4.6,4.6,0,0,1,4.6-3.588,4.6,4.6,0,0,1,4.6,3.6C15.7,11.634,14.054,13.931,12.566,15.372Z" transform="translate(3.129 3.129)" fill="#3273f1"/>
        <path id="Vector-4" data-name="Vector" d="M18.724,8.229A.713.713,0,0,1,18.6,9.371a10.164,10.164,0,0,1-5.006,1.158H.483a.486.486,0,0,1-.329-.845L9.6.235a.775.775,0,0,1,1.111,0Z" transform="translate(10.612 22.656)" fill="#df2e1e"/>
        <path id="Vector-5" data-name="Vector" d="M10.544.483v13.11A10.123,10.123,0,0,1,9.386,18.6a.722.722,0,0,1-1.142.125l-8.01-8.01a.775.775,0,0,1,0-1.111L9.684.155A.5.5,0,0,1,10.544.483Z" transform="translate(22.094 10.957)" fill="#249a41"/>
      </g>
    </g>
  </g>
</svg>
