<svg id="Component_28_1" data-name="Component 28 – 1" xmlns="http://www.w3.org/2000/svg" width="43.818" height="43.818" viewBox="0 0 43.818 43.818">
  <path id="Vector" d="M43.818,21.909A21.909,21.909,0,1,1,21.909,0,21.909,21.909,0,0,1,43.818,21.909Z" transform="translate(43.818 43.818) rotate(180)" fill="#ffc32f"/>
  <path id="Vector-2" data-name="Vector" d="M16.974,6.567H5.6L9.371,2.8A1.642,1.642,0,1,0,7.049.477L.477,7.049a1.653,1.653,0,0,0,0,2.322l6.573,6.573a1.64,1.64,0,0,0,2.322,0,1.653,1.653,0,0,0,0-2.322L5.6,9.853H16.974a1.643,1.643,0,0,0,0-3.286Z" transform="translate(31.215 30.119) rotate(180)"/>
</svg>
