<svg xmlns="http://www.w3.org/2000/svg" xmlns:xlink="http://www.w3.org/1999/xlink" width="66.809" height="69.809" viewBox="0 0 66.809 69.809">
  <defs>
    <clipPath id="clip-path">
      <rect id="Rectangle_354" data-name="Rectangle 354" width="66.809" height="69.809" fill="none"/>
    </clipPath>
  </defs>
  <g id="Group_5529" data-name="Group 5529" clip-path="url(#clip-path)">
    <path id="Path_92" data-name="Path 92" d="M231.908,0h2.182a1.394,1.394,0,0,0,.954,0h.682A.177.177,0,0,0,236,0h.409c.708.152,1.436.086,2.148.191a32.938,32.938,0,0,1,17.293,8.017,33.368,33.368,0,0,1,10.777,18.641c.268,1.265.3,2.553.459,3.829v.409c-.084.075-.067.177-.07.273s-.014.2.07.273v3.681a.177.177,0,0,0,0,.273v.682a30.011,30.011,0,0,1-.844,5.4,38.252,38.252,0,0,1-1.6,4.753,1.744,1.744,0,0,1-.452.744c-.41.127-.506-.227-.639-.457-1.9-3.281-3.788-6.571-5.69-9.851-2.779-4.794-5.538-9.6-8.316-14.393q-2.2-3.8-4.392-7.611a2.427,2.427,0,0,0-.373-.554,26.018,26.018,0,0,0-2.649-5.642A21.593,21.593,0,0,0,232.553.487c-.242-.107-.6-.1-.645-.487" transform="translate(-200.276)" fill="#ffd100"/>
    <path id="Path_93" data-name="Path 93" d="M216.633.15c.218-.06.485.092.661-.15h.818a22.3,22.3,0,0,1,9.976,7.983,20.839,20.839,0,0,1,2.986,6.269,2.871,2.871,0,0,1,.371.709,21.092,21.092,0,0,1,.772,6.109c.022,1.438.03,2.876.008,4.314.033,5.535.007,11.07.015,16.606a6.537,6.537,0,0,1-.009.68q.02,6.726.008,13.452c0,1.4.031,2.808-.02,4.211.017.841.025,1.682-.008,2.523a11.261,11.261,0,0,1-.515,2.451,2.164,2.164,0,0,1-.738,1.109,7.3,7.3,0,0,1-4.855,3.295c-.032.006-.055.064-.081.1H225.2a1.758,1.758,0,0,1-.545-2.536,1.328,1.328,0,0,1,.762-.252,4.273,4.273,0,0,0,3.807-4.269c.008-14.492.052-28.985-.03-43.477a17.265,17.265,0,0,0-3.451-9.9,19.175,19.175,0,0,0-9.731-7.224c-.27-.814.189-1.405.618-2" transform="translate(-186.48)" fill="#e34b72"/>
    <path id="Path_94" data-name="Path 94" d="M46.221,233.824a2.637,2.637,0,0,1-.04.528,1.365,1.365,0,0,0,.4,1.523.486.486,0,0,1,.208.4H15.57c-3.165-.432-4.949-2.4-5.893-5.3a4.934,4.934,0,0,1-.175-1.55q0-7.526,0-15.051a38.568,38.568,0,0,0-.124-4.9c-.048-5.148-.015-10.3-.021-15.444a2.188,2.188,0,0,1,.158-1.2c.242-.2.384.014.5.155a2.029,2.029,0,0,0,1.567.7c.268.011.558,0,.7.31a4.138,4.138,0,0,1,.064,1.152q0,16.728,0,33.457a10.131,10.131,0,0,0,.026,1.155,4.456,4.456,0,0,0,3.965,3.837,8.263,8.263,0,0,0,1.091.026q13.837,0,27.675.006c.374,0,.78-.107,1.109.188" transform="translate(-8.071 -166.468)" fill="#dd1744"/>
    <path id="Path_95" data-name="Path 95" d="M1.5,190.653a26.876,26.876,0,0,1-1.239-5.539A3.161,3.161,0,0,0,0,183.76v-.545a.177.177,0,0,0,0-.273v-2.59a1.4,1.4,0,0,0,0-.955v-1.363a5.509,5.509,0,0,0,.321-1.827,38.534,38.534,0,0,1,1.229-5.419c.057.033.143.045.156.118a4.972,4.972,0,0,1-.081,2.9,1.311,1.311,0,0,0-.074.731q-.006,7.619-.005,15.237c0,.294-.028.587-.043.881" transform="translate(0 -147.492)" fill="#ffd100"/>
    <path id="Path_96" data-name="Path 96" d="M0,233.907a.786.786,0,0,1,0,.954Z" transform="translate(0 -202.002)" fill="#ffd622"/>
    <path id="Path_97" data-name="Path 97" d="M0,259.9c.15.091.168.182,0,.273Z" transform="translate(0 -224.447)" fill="#ffe891"/>
    <path id="Path_98" data-name="Path 98" d="M329.317,114.2a28.71,28.71,0,0,0-.717-6.108c-.041-.139.021-.174.147-.147q4.3,7.417,8.59,14.834,4.935,8.541,9.86,17.087c.112.194.249.372.375.558a7.388,7.388,0,0,1,.62,5.283,6.876,6.876,0,0,1-3.007,4.142c-.591.377-1.212.708-1.819,1.06-1.079-.262-1.343-1.059-1.336-2.035.033-.286.254-.412.467-.545.4-.254.821-.486,1.219-.75a4.356,4.356,0,0,0,1.4-5.926q-3.089-5.377-6.216-10.732c-3.1-5.319-6.165-10.656-9.264-15.974-.14-.24-.177-.515-.323-.747" transform="translate(-283.768 -93.216)" fill="#454a79"/>
    <path id="Path_99" data-name="Path 99" d="M327.321,104.972l-.146.147-.238-.625a.621.621,0,0,1,.384.478" transform="translate(-282.343 -90.241)" fill="#675771"/>
    <path id="Path_100" data-name="Path 100" d="M339.95,407.312a1.417,1.417,0,0,1,.125.44,1.25,1.25,0,0,0,.848,1.352c.109.045.181.181.27.275q-4.913,2.857-9.828,5.712c-1.757,1.015-3.528,2.007-5.292,3.009a8.432,8.432,0,0,0,1.065-3.421,5.789,5.789,0,0,1,1.8-1.2c3.408-1.993,6.807-4,10.223-5.982a1.438,1.438,0,0,1,.616-.272.294.294,0,0,1,.179.082" transform="translate(-281.596 -351.684)" fill="#2d325c"/>
    <path id="Path_101" data-name="Path 101" d="M49.489,28.642a31.045,31.045,0,0,1,5.743-4.427A16.433,16.433,0,0,1,59.708,22.7a18.124,18.124,0,0,1,5.2-.1,1.026,1.026,0,0,1,.686.247.627.627,0,0,1,.033.644c-.595,1.513-1.142,3.044-1.763,4.547a.76.76,0,0,1-.327.418,7.8,7.8,0,0,0-1.673.089,3.054,3.054,0,0,0-1.951,1.04,3.971,3.971,0,0,0,1.575,6.648,4.021,4.021,0,0,0,4.157-1.156,3.959,3.959,0,0,0,.643-4.329,10.1,10.1,0,0,0-.791-1.268,1.233,1.233,0,0,1,.127-.849q.878-2.231,1.714-4.478c.108-.291.192-.608.51-.765a1.582,1.582,0,0,1,.988.184A17.143,17.143,0,0,1,79.979,38.088a22.343,22.343,0,0,1,.124,2.922q0,20.2,0,40.4a3.478,3.478,0,0,1-.584,2.255,3.371,3.371,0,0,1-3.695.768,6.479,6.479,0,0,1-4.157-5.958c-.023-.294-.024-.59-.068-.882a1.233,1.233,0,0,1,.353-.856,6.022,6.022,0,0,0-.687-7.447,4.438,4.438,0,0,0-5.72-.641c-.248.15-.464.376-.79.357-.89-.3-1.1-.6-1.109-1.571.463-1.573,1.222-3.029,1.827-4.546.756-1.9,1.6-3.762,2.359-5.66a1.324,1.324,0,0,0-.039-1.24,1.213,1.213,0,0,0-1.134-.63,1.277,1.277,0,0,0-1.157.825c-.558,1.219-1.053,2.464-1.573,3.7-.6,1.423-1.191,2.85-1.8,4.271a1.362,1.362,0,0,1-.357.573c-.7.107-.9-.007-1.293-.744a1.118,1.118,0,0,1,.311-.731,6.135,6.135,0,0,0-.833-7.6,4.836,4.836,0,0,0-5.249-.684,1.791,1.791,0,0,1-.744.316,9.188,9.188,0,0,1-8.51-6.878,3.347,3.347,0,0,1-.1-.876c0-2.975-.1-5.954.026-8.923a15.513,15.513,0,0,1,3.267-8.939c.24-.374.636-.62.838-1.025" transform="translate(-39.136 -19.398)" fill="#dd1744"/>
    <path id="Path_102" data-name="Path 102" d="M46.764,57.55c.346.317.589.808,1.185.7.219.3-.008.562-.112.808-1.387,3.254-2.734,6.526-4.113,9.784a3.4,3.4,0,0,0-.28.836,1.245,1.245,0,0,0,2.318.829A25.6,25.6,0,0,0,46.9,67.89c.861-2.024,1.7-4.059,2.563-6.081.13-.3.141-.73.586-.825A1.283,1.283,0,0,0,51.059,62.5a2.875,2.875,0,0,1-.707,1.14,6,6,0,0,0,.7,7.564,4.5,4.5,0,0,0,5.915.4c.3-.223.559-.543.977-.582.269.867.17,1.789.42,2.664a5.934,5.934,0,0,0,4.044,4.25,2.8,2.8,0,0,0,3.184-.772,2.608,2.608,0,0,0,.547-1.768q.007-10.665,0-21.33c0-6.951.05-13.9-.02-20.853A17.235,17.235,0,0,0,54.449,17.165a2.955,2.955,0,0,0-.395-.077,2.621,2.621,0,0,1,.777-2.046,6.375,6.375,0,0,1,2.663.95,18.359,18.359,0,0,1,5.361,3.89,19.39,19.39,0,0,1,5.349,11.2,17.98,17.98,0,0,1,.116,2.166c0,14.124-.015,28.247.024,42.371A4.7,4.7,0,0,1,64.986,80.1c-.478.121-.976.166-1.465.245q-14.632,0-29.263-.006c-.281,0-.594.114-.842-.13.371-.318.822-.211,1.242-.212q13.562-.01,27.125-.008a1.932,1.932,0,0,0,.771-.045c.069-.054.077-.095.057-.144-.577-1.421-.577-1.421-2.157-1.421-8.474,0-16.947-.031-25.421.021-2.212.014-3.648-.893-3.631-3.622.065-10.518.026-21.036.026-31.554,0-.25-.009-.5,0-.75.014-.485-.161-.762-.695-.794a1.1,1.1,0,0,1-1.089-.778c-.5-2.829-.114-5.681-.232-8.519a1.487,1.487,0,0,1,.05-.439c.313-.34.185-.731.121-1.114a1.19,1.19,0,0,1,.051-.368,5.082,5.082,0,0,0,.514-1.24l0-.005c.336-.1.312-.426.406-.675a8.429,8.429,0,0,1,1.209-1.786c.289-.074.339-.327.418-.558a5.336,5.336,0,0,1,1.079-1.352c.355-.085.433-.4.564-.675a4.762,4.762,0,0,1,.926-.965.228.228,0,0,1,.3.011,17.8,17.8,0,0,0-3.086,7.319,10.159,10.159,0,0,0-.2,1.817c.02,2.7.06,5.409-.011,8.111A7.4,7.4,0,0,0,33.33,45a9.02,9.02,0,0,0,6.938,3.725c0,.4-.316.589-.552.816-2.381,2.286-2.118,7.5,1.579,9.122a4.469,4.469,0,0,0,4.731-.677c.229-.17.392-.459.738-.432" transform="translate(-25.371 -12.99)" fill="#da0048"/>
    <path id="Path_103" data-name="Path 103" d="M170.886,2.85,170.11,4.9c-.776,1.972-1.58,3.935-2.256,5.945a3.549,3.549,0,0,1-2.318,3.253,1.434,1.434,0,0,1-1.516-.24c-.474-1.249-.328-1.678.761-2.256a1.316,1.316,0,0,0,.525-.818,2.454,2.454,0,0,1,.51-.995c.75-1.785,1.453-3.589,2.077-5.422a8.3,8.3,0,0,1,.678-2.072c.177-.306.155-.722.508-.933l.711-.152c.2-.158.475.031.677-.133.375-.007.727-.219,1.113-.124l-.693,1.9" transform="translate(-141.427 -0.798)" fill="#dae1f3"/>
    <path id="Path_104" data-name="Path 104" d="M14.186,125.2q-.007.2-.013.4c-.191.3.154.674-.129.963q0,.2-.007.4a1.479,1.479,0,0,0-.063.734c-.005,2.266,0,4.531-.007,6.8a1.157,1.157,0,0,1-.067.664,7.923,7.923,0,0,1-1.342-.105,1.688,1.688,0,0,1-1.118-1c-.066-1,.074-2.013-.075-3.016a35.14,35.14,0,0,1,2.4-5.655c.117-.215.263-.415.4-.622a.352.352,0,0,1,.025.43" transform="translate(-9.815 -107.75)" fill="#e34b72"/>
    <path id="Path_105" data-name="Path 105" d="M129.192,7.8a13.519,13.519,0,0,1-.816,2.05,3.5,3.5,0,0,0-1.511-.272,17.034,17.034,0,0,0-8.49,1.494c-.12.057-.235.15-.369.031a30.142,30.142,0,0,1,8.97-3.744,4.68,4.68,0,0,1,1.593-.022c.273.043.6.058.622.464" transform="translate(-101.911 -6.288)" fill="#da0048"/>
    <path id="Path_106" data-name="Path 106" d="M31.891,120.217l-.025-.43a1.827,1.827,0,0,1,.428-.787c.3.549-.287.805-.4,1.217" transform="translate(-27.519 -102.768)" fill="#da0048"/>
    <path id="Path_107" data-name="Path 107" d="M69.066,68.751l-.3-.011a5.091,5.091,0,0,1,.973-.972c-.034.458-.469.641-.673.982" transform="translate(-59.386 -58.525)" fill="#da0048"/>
    <path id="Path_108" data-name="Path 108" d="M35.429,114.011c.131.385.157.708-.406.675a1.866,1.866,0,0,1,.406-.675" transform="translate(-30.246 -98.46)" fill="#da0048"/>
    <path id="Path_109" data-name="Path 109" d="M58.4,81.968c.026.4-.039.732-.564.675l.564-.675" transform="translate(-49.949 -70.788)" fill="#da0048"/>
    <path id="Path_110" data-name="Path 110" d="M47.281,96.824c.125.384.048.617-.418.558.125-.2.2-.431.418-.558" transform="translate(-40.471 -83.617)" fill="#da0048"/>
    <path id="Path_111" data-name="Path 111" d="M333.823,203.259q-.012-7.2-.022-14.4c0-.973.016-1.946.025-2.919.361.026.456.34.6.582q4.212,7.208,8.383,14.439c1.7,2.929,3.4,5.853,5.085,8.789a2.53,2.53,0,0,1-.987,3.831c-1.449.89-1.456.913-3.077.461a13.324,13.324,0,0,1-8.674-7.03,10.732,10.732,0,0,1-1.332-3.756" transform="translate(-288.27 -160.58)" fill="#2d325c"/>
    <path id="Path_112" data-name="Path 112" d="M333.817,175.552a19.148,19.148,0,0,0,2.425,5.278,13.656,13.656,0,0,0,8.325,5.537c1.191.293,1.773-.465,2.583-.869a2.071,2.071,0,0,0,1.06-1.73,3.828,3.828,0,0,0-.833-2.316q-3.14-5.44-6.307-10.865-3.058-5.252-6.122-10.5a15.2,15.2,0,0,0-1.126-1.852q0-2.188-.008-4.376a21.253,21.253,0,0,1,1.788,2.948q5.379,9.207,10.721,18.435c1.182,2.036,2.393,4.057,3.525,6.121a4.592,4.592,0,0,1-2,6.324,3.741,3.741,0,0,0-1.231.813h-.137a1.778,1.778,0,0,1-1.086-1.054c-.152-.538-.435-.45-.809-.221-1.238.757-2.5,1.47-3.753,2.2q-3.138,1.84-6.278,3.678c-.222.129-.435.362-.737.167-.009-2.4-.026-4.8-.025-7.2,0-3.509.014-7.017.023-10.526" transform="translate(-288.264 -132.873)" fill="#23284f"/>
    <path id="Path_113" data-name="Path 113" d="M333.892,401.4a27.393,27.393,0,0,0,2.882-1.618c2.709-1.578,5.4-3.179,8.108-4.765.161-.094.476-.286.521-.043a3.487,3.487,0,0,0,1.151,1.651q-5.036,2.952-10.074,5.9c-.86.5-1.735.978-2.6,1.466q.007-1.3.014-2.592" transform="translate(-288.337 -340.999)" fill="#191e3f"/>
    <path id="Path_114" data-name="Path 114" d="M30.387,203.92a1.036,1.036,0,0,0,1.133.677c.67-.084.787.25.786.84-.013,10.97.013,21.941-.033,32.911a2.752,2.752,0,0,0,2.99,2.948c8.972-.041,17.943-.014,26.915-.027.576,0,1,.011.994.767a1.618,1.618,0,0,0,.82,1.287H34.068a4.359,4.359,0,0,1-3.819-3.68,1.5,1.5,0,0,1-.062-.736q-.005-17.119.009-34.237c0-.243-.229-.6.19-.751" transform="translate(-26.024 -176.105)" fill="#d20049"/>
    <path id="Path_115" data-name="Path 115" d="M30.129,149.481c-.246.249-.131.562-.131.843q-.01,17.441-.007,34.881c-.243-.249-.13-.562-.13-.844q-.012-17.642-.01-35.283,0-3.741.012-7.483c0-.24-.08-.5.124-.712,0,2.423.022,4.847-.013,7.27a10.42,10.42,0,0,1,.153,1.328" transform="translate(-25.766 -121.667)" fill="#da0048"/>
    <path id="Path_116" data-name="Path 116" d="M183.129,364.045a5.237,5.237,0,0,1-3.466,1.686,5.3,5.3,0,0,1-5.259-4.743,6.279,6.279,0,0,1,1.842-5.463c2.465-1.64,4.735-1.569,6.545.206a6.168,6.168,0,0,1,.68,7.811c-.116.166-.229.334-.343.5" transform="translate(-150.559 -306.013)" fill="#dae1f3"/>
    <path id="Path_117" data-name="Path 117" d="M101.263,265.169a5.14,5.14,0,0,1-3.329,1.665,5.273,5.273,0,0,1-5.4-4.8,6.173,6.173,0,0,1,2.232-5.694,4.82,4.82,0,0,1,6.676,1.072,6.266,6.266,0,0,1,.205,7.2c-.128.186-.258.371-.386.556" transform="translate(-79.871 -220.609)" fill="#dae1f3"/>
    <path id="Path_118" data-name="Path 118" d="M137.751,274.352q-1.495,3.495-2.988,6.99c-.329.771-.639,1.55-.973,2.318a1.47,1.47,0,1,1-2.691-1.129q2.2-5.266,4.421-10.525c.052-.125.087-.257.131-.386q1.771-4.19,3.544-8.379a1.508,1.508,0,0,1,1.656-1.108,1.473,1.473,0,0,1,1.056,2.189c-1.128,2.717-2.275,5.427-3.408,8.142-.261.624-.5,1.259-.746,1.888" transform="translate(-113.072 -226.358)" fill="#dae1f3"/>
    <path id="Path_119" data-name="Path 119" d="M145.3,76.548a2.233,2.233,0,0,0,3.035-1.128c.279-.586.511-1.194.763-1.793a4.134,4.134,0,0,1,.782,4.985,4.169,4.169,0,0,1-7.832-1.833,3.8,3.8,0,0,1,1.323-3.141c.256.075.316.309.39.515a4.738,4.738,0,0,0,1.539,2.394" transform="translate(-122.671 -63.584)" fill="#ffd100"/>
    <path id="Path_120" data-name="Path 120" d="M132.2,184.085c-1.657,0-3.315,0-4.972,0-.864,0-1.3-.383-1.305-1.124-.006-.679.442-1.057,1.285-1.058q4.972-.006,9.945,0c.861,0,1.33.407,1.316,1.115-.014.68-.471,1.065-1.3,1.067-1.657,0-3.315,0-4.972,0" transform="translate(-108.742 -157.087)" fill="#e34b72"/>
    <path id="Path_121" data-name="Path 121" d="M132.157,213.1c-1.658,0-3.315,0-4.972,0-.835,0-1.282-.391-1.268-1.075.014-.715.443-1.1,1.254-1.106q5.007-.007,10.013,0c.814,0,1.274.4,1.278,1.084s-.456,1.094-1.264,1.1c-1.68.006-3.36,0-5.041,0" transform="translate(-108.741 -182.145)" fill="#e34b72"/>
    <path id="Path_122" data-name="Path 122" d="M152.128,152.88c.635,0,1.27-.008,1.9,0a1.134,1.134,0,0,1,1.143,1.02,1.1,1.1,0,0,1-1.092,1.153q-1.972.039-3.945,0a1.2,1.2,0,0,1-1.155-1.193,1.073,1.073,0,0,1,1.172-.98c.657-.012,1.315,0,1.973,0" transform="translate(-128.66 -132.024)" fill="#e34a72"/>
    <path id="Path_123" data-name="Path 123" d="M153.686,69.971a1.95,1.95,0,0,1-1.246-1.228c-.239-.556-.456-1.12-.682-1.681a2.791,2.791,0,0,1,1.989-1.05,3.221,3.221,0,0,1,.762,1.943c-.964.425-1.135.8-.8,1.777.031.09.056.167-.026.239" transform="translate(-131.057 -57.008)" fill="#b8c0e3"/>
    <path id="Path_124" data-name="Path 124" d="M167.1,66.975l-.762-1.943a2.545,2.545,0,0,1,1.7-.017l-.609,1.69c-.056.155-.134.284-.329.27" transform="translate(-143.653 -56.028)" fill="#ffd000"/>
    <path id="Path_125" data-name="Path 125" d="M30.935,131.845c.038-.321-.111-.668.129-.963-.1.313.518.722-.129.963" transform="translate(-26.706 -113.03)" fill="#da0048"/>
    <path id="Path_126" data-name="Path 126" d="M195.789,378.417a2.917,2.917,0,0,1,.712-2,1.843,1.843,0,0,1,2.9-.028,3.279,3.279,0,0,1,.063,4.085,1.872,1.872,0,0,1-3.118-.131,3.045,3.045,0,0,1-.562-1.923" transform="translate(-169.081 -324.447)" fill="#dd1744"/>
    <path id="Path_127" data-name="Path 127" d="M113.874,279.644a2.973,2.973,0,0,1,.781-2.116,1.831,1.831,0,0,1,2.815.013,3.29,3.29,0,0,1-.015,4.247,1.845,1.845,0,0,1-2.772.032,3.1,3.1,0,0,1-.809-2.176" transform="translate(-98.342 -239.109)" fill="#dd1744"/>
  </g>
</svg>
