<svg id="Component_7_7" data-name="Component 7 – 7" xmlns="http://www.w3.org/2000/svg" width="73.476" height="73.476" viewBox="0 0 73.476 73.476">
  <g id="Group_163306" data-name="Group 163306">
    <g id="Group_5377" data-name="Group 5377">
      <g id="play-circle_bulk" data-name="play-circle/bulk">
        <g id="vuesax_bulk_play-circle" data-name="vuesax/bulk/play-circle">
          <g id="play-circle">
            <g id="Group_5378" data-name="Group 5378" transform="translate(11.044 16.23)">
              <path id="Vector" d="M51.389,25.694A25.694,25.694,0,1,1,25.694,0,25.694,25.694,0,0,1,51.389,25.694Z" transform="translate(0 0)" fill="#fcbc28"/>
              <path id="Vector-2" data-name="Vector" d="M17.574,5.485,9.56.87a6.286,6.286,0,0,0-6.383,0A6.313,6.313,0,0,0,0,6.4v9.257a6.367,6.367,0,0,0,6.355,6.383,6.239,6.239,0,0,0,3.178-.857l8.013-4.614a6.313,6.313,0,0,0,3.178-5.526A6.167,6.167,0,0,0,17.574,5.485Z" transform="translate(16.2 15.186)"/>
            </g>
            <path id="Vector-3" data-name="Vector" d="M0,0H73.476V73.476H0Z" fill="none" opacity="0"/>
          </g>
        </g>
      </g>
    </g>
  </g>
</svg>
